<svg version="1.1" xmlns="http://www.w3.org/2000/svg" viewBox="-45.87852909659963 -18.21185559671685 91.75705819319923 40.2520481729977" fill="none" stroke="black" stroke-width="0.6%" vector-effect="non-scaling-stroke">
    <path d="M -44.87853 3.90354 L 0.26277 21.04019 L 0.26277 1.41248 L 44.87853 -2.92215 L 7.27525 -17.1972" />
    <path d="M -44.87853 3.90354 L -44.87853 -5.91032 L -37.3405 -3.04872 L -37.3405 -12.86257 L 0.26277 1.41248" />
    <path d="M 0.26277 21.04019 L 44.87853 16.70556" />
    <path d="M -37.3405 -6.64267 L -44.87853 -5.91032" />
    <path d="M -37.3405 -12.86257 A 50 9.60236 360 0 1 7.27525 -17.1972" />
    <path d="M -13.05662 -14.29831 C -13.06 -14.29 -13.06 -14.29 -13.05487 -14.28613 C -13.05 -14.28 -13.05 -14.28 -13.04961 -14.27424 C -13.05 -14.27 -13.04 -14.27 -13.04079 -14.26265 C -13.04 -14.26 -13.03 -14.26 -13.02838 -14.25137 C -13.02 -14.25 -13.02 -14.24 -13.01477 -14.2415 C -13.01 -14.24 -13 -14.23 -12.99897 -14.23145 C -12.99 -14.23 -12.99 -14.22 -12.98102 -14.22124 C -12.97 -14.22 -12.97 -14.21 -12.96095 -14.21087 C -12.95 -14.2 -12.93 -14.2 -12.91464 -14.18965 C -12.9 -14.18 -12.88 -14.18 -12.86038 -14.16786 C -12.85 -14.17 -12.85 -14.16 -12.83912 -14.16022 C -12.83 -14.16 -12.82 -14.16 -12.81617 -14.1528 C -12.81 -14.15 -12.8 -14.15 -12.79155 -14.14561 C -12.78 -14.14 -12.77 -14.14 -12.76527 -14.13866 C -12.76 -14.14 -12.75 -14.14 -12.74391 -14.13347 C -12.74 -14.13 -12.73 -14.13 -12.72159 -14.12842 C -12.71 -14.13 -12.71 -14.13 -12.69832 -14.12352 C -12.69 -14.12 -12.68 -14.12 -12.6741 -14.11877 C -12.66 -14.12 -12.64 -14.11 -12.6229 -14.10972 C -12.61 -14.11 -12.59 -14.1 -12.56813 -14.10128 C -12.55 -14.1 -12.53 -14.1 -12.50994 -14.09345 C -12.49 -14.09 -12.47 -14.09 -12.44849 -14.08622 C -12.43 -14.08 -12.41 -14.08 -12.38395 -14.0796 C -12.36 -14.08 -12.34 -14.08 -12.31652 -14.07358 C -12.31 -14.07 -12.3 -14.07 -12.29042 -14.07145" />
    <path d="M -12.29042 -13.98889 L -11.50574 -13.691 L -10.79375 -13.76018" />
    <path d="M -3.27759 -10.56741 L -2.4885 -10.26786 L -2.11379 -10.30426" />
    <path d="M -2.11379 -10.12561 L -1.33572 -9.83024 L -0.43854 -9.9174" />
    <path d="M -0.43854 -9.55582 C -0.44 -9.55 -0.44 -9.55 -0.43684 -9.54067 C -0.44 -9.54 -0.43 -9.53 -0.43164 -9.52511 C -0.43 -9.52 -0.43 -9.51 -0.42309 -9.50959 C -0.42 -9.5 -0.42 -9.5 -0.41137 -9.49412 C -0.41 -9.49 -0.4 -9.48 -0.39665 -9.47872 C -0.39 -9.47 -0.38 -9.47 -0.37408 -9.45945 C -0.37 -9.45 -0.36 -9.45 -0.34734 -9.44035 C -0.34 -9.43 -0.33 -9.43 -0.31676 -9.42142 C -0.31 -9.42 -0.29 -9.41 -0.28262 -9.40269 C -0.28 -9.4 -0.27 -9.4 -0.26431 -9.39339 C -0.26 -9.39 -0.25 -9.39 -0.24522 -9.38415 C -0.24 -9.38 -0.23 -9.38 -0.22538 -9.37496 C -0.22 -9.37 -0.21 -9.37 -0.20481 -9.36582 C -0.2 -9.36 -0.19 -9.36 -0.18355 -9.35673 C -0.18 -9.35 -0.17 -9.35 -0.16163 -9.34769 C -0.15 -9.34 -0.15 -9.34 -0.13907 -9.33871 C -0.13 -9.34 -0.12 -9.33 -0.1159 -9.32977 C -0.1 -9.32 -0.09 -9.32 -0.07214 -9.31364 C -0.06 -9.31 -0.04 -9.3 -0.02651 -9.29778 C -0.01 -9.29 0 -9.29 0.02109 -9.28223 C 0.04 -9.28 0.05 -9.27 0.07071 -9.267 C 0.09 -9.26 0.1 -9.26 0.12244 -9.25212 C 0.14 -9.25 0.16 -9.24 0.17633 -9.23764 C 0.19 -9.23 0.21 -9.23 0.23245 -9.22357 C 0.25 -9.22 0.27 -9.21 0.29087 -9.20997 C 0.3 -9.21 0.32 -9.2 0.33146 -9.20109 C 0.35 -9.2 0.36 -9.2 0.37313 -9.19245 C 0.39 -9.19 0.4 -9.19 0.41586 -9.18406 C 0.43 -9.18 0.44 -9.18 0.45968 -9.17592 C 0.47 -9.17 0.49 -9.17 0.50458 -9.16806 C 0.52 -9.17 0.54 -9.16 0.55056 -9.16049 C 0.57 -9.16 0.58 -9.16 0.59761 -9.15321 C 0.61 -9.15 0.63 -9.15 0.64572 -9.14625 C 0.66 -9.14 0.68 -9.14 0.69231 -9.13994 C 0.71 -9.14 0.72 -9.14 0.73983 -9.13393 C 0.76 -9.13 0.77 -9.13 0.78825 -9.12823 C 0.8 -9.13 0.82 -9.12 0.83754 -9.12285 C 0.85 -9.12 0.87 -9.12 0.88767 -9.11779 C 0.9 -9.12 0.92 -9.11 0.93862 -9.11307 C 0.96 -9.11 0.97 -9.11 0.99034 -9.10868 C 1.01 -9.11 1.03 -9.11 1.04279 -9.10464 C 1.07 -9.1 1.1 -9.1 1.12681 -9.09898 C 1.14 -9.1 1.16 -9.1 1.1812 -9.09583 C 1.2 -9.09 1.22 -9.09 1.23618 -9.09306 C 1.25 -9.09 1.27 -9.09 1.2917 -9.09067 C 1.31 -9.09 1.33 -9.09 1.34769 -9.08865 C 1.39 -9.09 1.42 -9.09 1.46089 -9.08573 C 1.5 -9.09 1.54 -9.08 1.57536 -9.08426 C 1.58 -9.08 1.58 -9.08 1.58039 -9.08423" />
    <path d="M 1.58039 -8.72321 L 2.47528 -8.38349 L 2.87644 -8.41355" />
    <path d="M 2.87644 -8.2312 L 3.77133 -7.89148 L 4.45241 -7.9356" />
    <path d="M 6.2026 -6.9654 C 6.21 -6.96 6.22 -6.95 6.22262 -6.94958 C 6.23 -6.94 6.24 -6.94 6.24592 -6.93368 C 6.25 -6.93 6.26 -6.92 6.27244 -6.91771 C 6.28 -6.91 6.29 -6.91 6.30208 -6.90167 C 6.31 -6.9 6.32 -6.89 6.33477 -6.88559 C 6.35 -6.88 6.36 -6.87 6.37043 -6.86946 C 6.4 -6.86 6.42 -6.85 6.45031 -6.83709 C 6.47 -6.83 6.5 -6.82 6.52267 -6.81067 C 6.55 -6.8 6.57 -6.79 6.59848 -6.78516 C 6.62 -6.78 6.65 -6.77 6.67794 -6.76064 C 6.71 -6.75 6.73 -6.74 6.7612 -6.73725 C 6.77 -6.73 6.79 -6.73 6.8004 -6.727 C 6.81 -6.72 6.83 -6.72 6.84044 -6.71703 C 6.85 -6.71 6.87 -6.71 6.88133 -6.70733 C 6.9 -6.7 6.91 -6.7 6.92307 -6.69794 C 6.94 -6.69 6.95 -6.69 6.96568 -6.68886 C 6.98 -6.69 6.99 -6.68 7.00916 -6.68011 C 7.02 -6.68 7.04 -6.67 7.05351 -6.67169 C 7.07 -6.67 7.08 -6.67 7.09874 -6.66364 C 7.12 -6.66 7.15 -6.66 7.17053 -6.65188 C 7.19 -6.65 7.22 -6.64 7.24448 -6.64103 C 7.27 -6.64 7.29 -6.63 7.32054 -6.63113 C 7.35 -6.63 7.37 -6.63 7.39865 -6.62223 C 7.41 -6.62 7.43 -6.62 7.43844 -6.61816 C 7.45 -6.62 7.47 -6.62 7.47872 -6.61436 C 7.49 -6.61 7.51 -6.61 7.51946 -6.61082 C 7.53 -6.61 7.55 -6.61 7.56065 -6.60756 C 7.57 -6.61 7.59 -6.61 7.60227 -6.60457 C 7.62 -6.6 7.63 -6.6 7.64431 -6.60185 C 7.66 -6.6 7.67 -6.6 7.68675 -6.59942 C 7.7 -6.6 7.72 -6.6 7.72957 -6.59727 C 7.75 -6.6 7.77 -6.6 7.79624 -6.5945 C 7.82 -6.59 7.84 -6.59 7.86368 -6.5924 C 7.91 -6.59 7.96 -6.59 8.00313 -6.5897 C 8.03 -6.59 8.06 -6.59 8.09132 -6.58893 C 8.12 -6.59 8.15 -6.59 8.17971 -6.58888" />
    <path d="M 6.14859 -7.07523 C 6.15 -7.07 6.15 -7.07 6.14604 -7.06559 C 6.15 -7.06 6.15 -7.06 6.14519 -7.05576 C 6.15 -7.05 6.15 -7.05 6.14613 -7.04514 C 6.15 -7.04 6.15 -7.04 6.14892 -7.03431 C 6.15 -7.03 6.16 -7.02 6.15994 -7.01206 C 6.16 -7 6.17 -7 6.17793 -6.98907 C 6.19 -6.98 6.19 -6.97 6.2026 -6.9654 L 6.2026 -7.94679 Q 6.13 -8.01 6.14519 -8.03715 Q 6.13 -8.01 6.14859 -8.05661 Q 6.17 -8.11 6.27079 -8.14941 Q 6.38 -8.19 6.51673 -8.22742 Q 6.66 -8.26 6.86778 -8.29358 Q 7.08 -8.33 7.27041 -8.34846 Q 7.46 -8.37 7.70711 -8.39457 L 10.33439 -8.64982 Q 11.24 -8.74 11.97458 -8.68464 Q 12.71 -8.63 13.18235 -8.45361 Q 14.13 -8.09 13.50521 -8.2293 Q 14.13 -8.09 12.27846 -7.9118 L 11.80355 -7.86566 Q 10.92 -7.78 10.57913 -7.75091 L 9.43296 -8.18602 L 8.51799 -8.09713 Q 8.47 -8.09 8.37529 -8.08379 Q 8.28 -8.07 8.22387 -8.0696 Q 8.07 -8.05 7.96252 -8.04106 Q 7.86 -8.03 7.7602 -8.00984 Q 7.66 -7.99 7.64433 -7.97074 Q 7.63 -7.95 7.64025 -7.96103 Q 7.63 -7.95 7.68801 -7.92611 Q 7.75 -7.9 7.88092 -7.89546 Q 8.01 -7.89 8.19419 -7.8991 Q 8.38 -7.91 8.51359 -7.92015 Q 8.65 -7.93 8.84477 -7.95022 Q 9.23 -7.99 9.25864 -7.99253 L 10.04332 -7.69465 L 9.67297 -7.65867 Q 9.13 -7.61 8.70305 -7.5844 Q 8.28 -7.56 7.86368 -7.57379 Q 7.45 -7.58 7.09874 -7.64502 Q 6.75 -7.71 6.45031 -7.81847 Q 6.27 -7.89 6.2026 -7.94679" />
    <path d="M 9.57501 -5.28216 C 9.58 -5.28 9.59 -5.27 9.59079 -5.26934 C 9.6 -5.27 9.6 -5.26 9.60841 -5.2564 C 9.61 -5.25 9.62 -5.25 9.62777 -5.24336 C 9.63 -5.24 9.64 -5.23 9.64879 -5.23023 C 9.66 -5.23 9.66 -5.22 9.67138 -5.21701 C 9.68 -5.21 9.69 -5.21 9.69548 -5.20372 C 9.7 -5.2 9.71 -5.19 9.72101 -5.19036 C 9.73 -5.19 9.74 -5.18 9.74791 -5.17694 C 9.76 -5.17 9.77 -5.17 9.7761 -5.16347 C 9.79 -5.16 9.8 -5.15 9.80552 -5.14995 C 9.82 -5.15 9.83 -5.14 9.83612 -5.13638 C 9.85 -5.13 9.86 -5.13 9.86784 -5.12277 C 9.88 -5.12 9.89 -5.11 9.90064 -5.10913 C 9.91 -5.1 9.92 -5.1 9.93445 -5.09546 C 9.95 -5.09 9.96 -5.09 9.96924 -5.08176 C 9.98 -5.08 9.99 -5.07 10.00498 -5.06804 C 10.03 -5.06 10.05 -5.05 10.06822 -5.04466 C 10.09 -5.04 10.11 -5.03 10.13325 -5.02192 C 10.16 -5.01 10.18 -5.01 10.20015 -4.99987 C 10.22 -4.99 10.25 -4.99 10.26898 -4.97856 C 10.29 -4.97 10.32 -4.96 10.3398 -4.95807 C 10.36 -4.95 10.39 -4.94 10.41268 -4.93848 C 10.44 -4.93 10.46 -4.93 10.48766 -4.91985 C 10.51 -4.91 10.54 -4.91 10.56478 -4.90226 C 10.59 -4.9 10.61 -4.89 10.62681 -4.88931 C 10.65 -4.89 10.67 -4.88 10.69114 -4.87699 C 10.71 -4.87 10.74 -4.87 10.75774 -4.86532 C 10.78 -4.86 10.8 -4.86 10.8266 -4.85431 C 10.85 -4.85 10.87 -4.85 10.89768 -4.844 C 10.92 -4.84 10.95 -4.84 10.97094 -4.83438 C 11 -4.83 11.02 -4.83 11.04631 -4.82549 C 11.07 -4.82 11.1 -4.82 11.12375 -4.81732 C 11.16 -4.81 11.19 -4.81 11.22656 -4.80787 C 11.24 -4.81 11.26 -4.81 11.27408 -4.80407 C 11.29 -4.8 11.31 -4.8 11.32238 -4.80062 C 11.34 -4.8 11.35 -4.8 11.37143 -4.79753 C 11.39 -4.8 11.4 -4.8 11.4212 -4.7948 C 11.45 -4.79 11.49 -4.79 11.52274 -4.79041 C 11.56 -4.79 11.59 -4.79 11.62673 -4.78744 C 11.66 -4.79 11.7 -4.79 11.73597 -4.78583 C 11.77 -4.79 11.81 -4.79 11.84716 -4.78564 C 11.88 -4.79 11.92 -4.79 11.96003 -4.78684 C 11.98 -4.79 12 -4.79 12.017 -4.78793 C 12.04 -4.79 12.06 -4.79 12.07429 -4.78935 C 12.09 -4.79 12.11 -4.79 12.13119 -4.79106 C 12.15 -4.79 12.17 -4.79 12.18842 -4.79306 C 12.21 -4.79 12.23 -4.79 12.24593 -4.79535 C 12.27 -4.8 12.28 -4.8 12.3037 -4.79793 C 12.32 -4.8 12.34 -4.8 12.3617 -4.80077 C 12.38 -4.8 12.4 -4.8 12.4199 -4.80388 C 12.44 -4.8 12.46 -4.81 12.47828 -4.80723 C 12.5 -4.81 12.52 -4.81 12.53682 -4.81084 C 12.57 -4.81 12.6 -4.82 12.63356 -4.81728 C 12.67 -4.82 12.7 -4.82 12.73059 -4.82433 C 12.76 -4.83 12.8 -4.83 12.82782 -4.83194 C 12.86 -4.83 12.89 -4.84 12.9252 -4.84009" />
    <path d="M 9.5271 -5.36781 C 9.53 -5.36 9.53 -5.36 9.52783 -5.35688 C 9.53 -5.35 9.53 -5.35 9.53004 -5.34601 C 9.53 -5.34 9.53 -5.34 9.53373 -5.3352 C 9.54 -5.33 9.54 -5.33 9.53892 -5.32445 C 9.54 -5.32 9.54 -5.32 9.54564 -5.31376 C 9.55 -5.31 9.55 -5.31 9.55389 -5.30315 C 9.56 -5.3 9.56 -5.3 9.56367 -5.29261 C 9.57 -5.29 9.57 -5.29 9.57501 -5.28216 L 9.57501 -6.26354 Q 9.47 -6.35 9.5271 -6.34919 Q 9.47 -6.35 9.59745 -6.46172 L 10.76606 -6.44809 Q 10.71 -6.31 10.75837 -6.40595 Q 10.71 -6.31 11.0037 -6.19585 Q 11.18 -6.13 11.50799 -6.11243 Q 11.83 -6.1 12.2411 -6.13741 L 12.60273 -6.17255 Q 11.83 -6.14 11.427 -6.29898 Q 11.25 -6.37 11.2567 -6.42522 Q 11.25 -6.37 11.25679 -6.42799 Q 11.26 -6.49 11.42104 -6.54221 Q 11.58 -6.59 11.83693 -6.63568 Q 12.09 -6.68 12.43668 -6.71129 L 14.88968 -6.94961 Q 15.4 -7 15.80083 -7.01606 Q 16.2 -7.03 16.49301 -7.01816 Q 16.78 -7 16.98666 -6.96786 Q 17.19 -6.93 17.34381 -6.87382 Q 17.42 -6.84 17.45884 -6.81354 Q 17.49 -6.78 17.48541 -6.76544 Q 17.49 -6.78 17.48229 -6.74751 Q 17.47 -6.71 17.35853 -6.67401 Q 17.25 -6.64 17.03381 -6.60305 L 17.77014 -6.67459 L 18.57466 -6.36917 L 13.14583 -5.84174 Q 12.55 -5.78 12.07429 -5.77073 Q 11.6 -5.76 11.22656 -5.78926 Q 10.85 -5.82 10.56478 -5.88365 Q 10.28 -5.95 10.00498 -6.04942 Q 9.68 -6.17 9.57501 -6.26354" />
    <path d="M 12.98261 -4.39156 C 12.99 -4.39 13 -4.38 13.00263 -4.37573 C 13.01 -4.37 13.02 -4.37 13.02593 -4.35983 C 13.03 -4.35 13.04 -4.35 13.05245 -4.34386 C 13.06 -4.34 13.07 -4.33 13.08209 -4.32783 C 13.09 -4.32 13.1 -4.32 13.11479 -4.31174 C 13.13 -4.31 13.14 -4.3 13.15045 -4.29561 C 13.18 -4.28 13.2 -4.27 13.23032 -4.26324 C 13.25 -4.25 13.28 -4.25 13.30268 -4.23683 C 13.33 -4.23 13.35 -4.22 13.37849 -4.21131 C 13.4 -4.2 13.43 -4.19 13.45795 -4.1868 C 13.49 -4.18 13.51 -4.17 13.54121 -4.1634 C 13.55 -4.16 13.57 -4.16 13.58041 -4.15315 C 13.59 -4.15 13.61 -4.15 13.62045 -4.14318 C 13.63 -4.14 13.65 -4.14 13.66134 -4.13349 C 13.68 -4.13 13.69 -4.13 13.70308 -4.1241 C 13.72 -4.12 13.73 -4.12 13.74569 -4.11502 C 13.76 -4.11 13.77 -4.11 13.78917 -4.10626 C 13.8 -4.1 13.82 -4.1 13.83352 -4.09785 C 13.85 -4.1 13.86 -4.09 13.87875 -4.08979 C 13.9 -4.09 13.93 -4.08 13.95054 -4.07804 C 13.97 -4.07 14 -4.07 14.02449 -4.06719 C 14.05 -4.06 14.07 -4.06 14.10055 -4.05729 C 14.13 -4.05 14.15 -4.05 14.17866 -4.04838 C 14.19 -4.05 14.21 -4.05 14.21846 -4.04432 C 14.23 -4.04 14.25 -4.04 14.25873 -4.04051 C 14.27 -4.04 14.29 -4.04 14.29947 -4.03698 C 14.31 -4.04 14.33 -4.03 14.34066 -4.03371 C 14.35 -4.03 14.37 -4.03 14.38228 -4.03072 C 14.4 -4.03 14.41 -4.03 14.42433 -4.02801 C 14.44 -4.03 14.45 -4.03 14.46676 -4.02557 C 14.48 -4.02 14.5 -4.02 14.50958 -4.02342 C 14.53 -4.02 14.55 -4.02 14.57625 -4.02065 C 14.6 -4.02 14.62 -4.02 14.6437 -4.01856 C 14.69 -4.02 14.74 -4.02 14.78314 -4.01586 C 14.81 -4.02 14.84 -4.02 14.87043 -4.01509 C 14.9 -4.01 14.93 -4.01 14.9579 -4.01502 C 14.99 -4.02 15.02 -4.02 15.04549 -4.01566 C 15.07 -4.02 15.1 -4.02 15.13314 -4.017 C 15.16 -4.02 15.19 -4.02 15.22078 -4.01903 C 15.25 -4.02 15.28 -4.02 15.30835 -4.02174 C 15.34 -4.02 15.37 -4.02 15.3958 -4.02512 C 15.42 -4.03 15.45 -4.03 15.48306 -4.02917 C 15.5 -4.03 15.52 -4.03 15.54115 -4.03221 C 15.56 -4.03 15.58 -4.03 15.59969 -4.03549 C 15.62 -4.04 15.64 -4.04 15.65866 -4.03902 C 15.68 -4.04 15.7 -4.04 15.71802 -4.04278 C 15.74 -4.04 15.76 -4.05 15.77776 -4.04677 C 15.8 -4.05 15.82 -4.05 15.83784 -4.05098 C 15.86 -4.05 15.88 -4.05 15.89824 -4.05539 C 15.92 -4.06 15.94 -4.06 15.95894 -4.06001 C 15.98 -4.06 16 -4.06 16.01992 -4.06483 C 16.04 -4.07 16.06 -4.07 16.08115 -4.06983 C 16.1 -4.07 16.12 -4.07 16.14262 -4.07502 C 16.16 -4.08 16.18 -4.08 16.20431 -4.08037 C 16.22 -4.08 16.25 -4.08 16.26621 -4.0859 C 16.29 -4.09 16.31 -4.09 16.32829 -4.09159 C 16.35 -4.09 16.37 -4.1 16.39056 -4.09744 C 16.41 -4.1 16.43 -4.1 16.45298 -4.10344 L 16.82333 -4.13942 L 16.82333 -5.1208 L 16.45298 -5.08482 Q 15.91 -5.03 15.48306 -5.01056 Q 15.06 -4.99 14.6437 -4.99994 Q 14.23 -5.01 13.87875 -5.07118 Q 13.53 -5.13 13.23032 -5.24463 Q 13.05 -5.31 12.98261 -5.37294 Q 12.91 -5.43 12.9252 -5.4633 Q 12.91 -5.43 12.9286 -5.48277 Q 12.95 -5.53 13.0508 -5.57556 Q 13.16 -5.62 13.29674 -5.65358 Q 13.44 -5.69 13.64779 -5.71973 Q 13.86 -5.75 14.05043 -5.77462 Q 14.24 -5.8 14.48713 -5.82072 L 17.1144 -6.07597 Q 18.02 -6.16 18.75459 -6.11079 Q 19.49 -6.06 19.96236 -5.87976 Q 20.91 -5.52 20.28522 -5.65546 Q 20.91 -5.52 19.05847 -5.33796 L 18.58356 -5.29182 Q 17.7 -5.21 17.35914 -5.17706 L 16.21297 -5.61217 L 15.298 -5.52328 Q 15.25 -5.52 15.1553 -5.50994 Q 15.06 -5.5 15.00388 -5.49576 Q 14.85 -5.48 14.74253 -5.46721 Q 14.64 -5.45 14.54022 -5.436 Q 14.44 -5.42 14.42435 -5.39689 Q 14.41 -5.38 14.42026 -5.38719 Q 14.41 -5.38 14.46802 -5.35227 Q 14.53 -5.33 14.66093 -5.32162 Q 14.79 -5.32 14.9742 -5.32526 Q 15.16 -5.34 15.2936 -5.3463 Q 15.43 -5.36 15.62478 -5.37638 Q 16.01 -5.41 16.03865 -5.41869 L 16.82333 -5.1208" />
    <path d="M 16.82333 -4.39908 L 17.35914 -4.19568 C 17.37 -4.2 17.38 -4.2 17.39151 -4.19845 C 17.4 -4.2 17.41 -4.2 17.4252 -4.20137 C 17.44 -4.2 17.45 -4.2 17.46007 -4.20443 C 17.47 -4.21 17.48 -4.21 17.49602 -4.20762 C 17.51 -4.21 17.52 -4.21 17.53294 -4.21093 C 17.55 -4.21 17.56 -4.21 17.57073 -4.21435 C 17.58 -4.22 17.6 -4.22 17.6093 -4.21786 C 17.62 -4.22 17.64 -4.22 17.64859 -4.22145 C 17.66 -4.22 17.68 -4.22 17.68851 -4.22513 C 17.7 -4.23 17.72 -4.23 17.72902 -4.22888 C 17.74 -4.23 17.76 -4.23 17.77005 -4.23269 C 17.78 -4.23 17.8 -4.24 17.81158 -4.23657 C 17.83 -4.24 17.84 -4.24 17.85355 -4.2405 C 17.87 -4.24 17.88 -4.24 17.89593 -4.24448 C 17.91 -4.25 17.92 -4.25 17.93872 -4.24852 C 17.95 -4.25 17.97 -4.25 17.98188 -4.2526 C 18.01 -4.25 18.03 -4.26 18.05477 -4.25952 C 18.08 -4.26 18.1 -4.26 18.12847 -4.26655 C 18.15 -4.27 18.18 -4.27 18.2029 -4.27368 C 18.23 -4.28 18.25 -4.28 18.27798 -4.28088 C 18.3 -4.28 18.33 -4.29 18.35363 -4.28817 C 18.38 -4.29 18.4 -4.29 18.42981 -4.29553 C 18.46 -4.3 18.48 -4.3 18.50647 -4.30295 C 18.53 -4.31 18.56 -4.31 18.58356 -4.31043 L 19.05847 -4.35657 C 19.07 -4.36 19.09 -4.36 19.10397 -4.36106 C 19.12 -4.36 19.13 -4.36 19.14913 -4.36566 C 19.16 -4.37 19.18 -4.37 19.19392 -4.37037 C 19.21 -4.37 19.22 -4.37 19.23834 -4.3752 C 19.25 -4.38 19.27 -4.38 19.28236 -4.38015 C 19.3 -4.38 19.31 -4.38 19.32595 -4.38521 C 19.34 -4.39 19.35 -4.39 19.36909 -4.39041 C 19.38 -4.39 19.4 -4.39 19.41175 -4.39573 C 19.43 -4.4 19.44 -4.4 19.4539 -4.40119 C 19.47 -4.4 19.48 -4.4 19.49551 -4.40678 C 19.51 -4.41 19.52 -4.41 19.53654 -4.41251 C 19.55 -4.41 19.56 -4.42 19.57696 -4.41838 C 19.59 -4.42 19.6 -4.42 19.61674 -4.4244 C 19.63 -4.43 19.64 -4.43 19.65582 -4.43057 C 19.67 -4.43 19.68 -4.43 19.69418 -4.43689 C 19.71 -4.44 19.72 -4.44 19.73178 -4.44337 C 19.75 -4.45 19.77 -4.45 19.78858 -4.45374 C 19.81 -4.46 19.83 -4.46 19.84322 -4.46451 C 19.86 -4.47 19.88 -4.47 19.89551 -4.47566 C 19.91 -4.48 19.93 -4.48 19.94526 -4.4872 C 19.96 -4.49 19.97 -4.49 19.98659 -4.49764 C 20 -4.5 20.01 -4.5 20.02567 -4.50837 C 20.04 -4.51 20.05 -4.52 20.06237 -4.5194 C 20.07 -4.52 20.09 -4.53 20.09655 -4.5307 C 20.11 -4.53 20.12 -4.54 20.12811 -4.54227 C 20.14 -4.55 20.15 -4.55 20.15693 -4.55408 C 20.17 -4.56 20.17 -4.56 20.18293 -4.56614 C 20.19 -4.57 20.2 -4.57 20.20602 -4.5784 C 20.25 -4.6 20.27 -4.62 20.28004 -4.64864 C 20.28 -4.66 20.29 -4.67 20.28522 -4.67407 L 20.28522 -5.65546" />
    <path d="M 12.9286 -4.50138 C 12.93 -4.5 12.93 -4.49 12.92605 -4.49175 C 12.93 -4.49 12.93 -4.49 12.9252 -4.48192 C 12.93 -4.48 12.93 -4.47 12.92614 -4.47129 C 12.93 -4.47 12.93 -4.46 12.92894 -4.46046 C 12.93 -4.45 12.94 -4.45 12.93995 -4.43821 C 12.94 -4.43 12.95 -4.42 12.95794 -4.41522 C 12.97 -4.41 12.97 -4.4 12.98261 -4.39156 L 12.98261 -5.37294" />
    <path d="M -10.78718 -13.46289 C -10.79 -13.46 -10.79 -13.46 -10.79211 -13.4526 C -10.79 -13.45 -10.79 -13.45 -10.79375 -13.44209 C -10.79 -13.44 -10.79 -13.43 -10.79142 -13.42926 C -10.79 -13.42 -10.79 -13.42 -10.78447 -13.41614 C -10.78 -13.41 -10.78 -13.41 -10.77297 -13.40275 C -10.77 -13.4 -10.76 -13.39 -10.75699 -13.3891 C -10.75 -13.38 -10.74 -13.38 -10.72656 -13.36883 C -10.72 -13.36 -10.7 -13.36 -10.68846 -13.34821 C -10.67 -13.34 -10.66 -13.33 -10.6429 -13.32726 C -10.63 -13.32 -10.61 -13.31 -10.59009 -13.30601 C -10.58 -13.3 -10.57 -13.3 -10.56329 -13.29636 C -10.55 -13.29 -10.54 -13.29 -10.53459 -13.28706 C -10.52 -13.28 -10.51 -13.28 -10.50398 -13.2781 C -10.49 -13.28 -10.48 -13.27 -10.47145 -13.26951 C -10.46 -13.27 -10.45 -13.26 -10.43701 -13.2613 C -10.43 -13.26 -10.41 -13.26 -10.40068 -13.25346 C -10.39 -13.25 -10.38 -13.25 -10.36246 -13.24602 C -10.35 -13.24 -10.34 -13.24 -10.32238 -13.23898 C -10.31 -13.24 -10.29 -13.23 -10.27984 -13.23224 C -10.27 -13.23 -10.25 -13.23 -10.23544 -13.22592 C -10.22 -13.22 -10.2 -13.22 -10.18924 -13.22003 C -10.17 -13.22 -10.16 -13.22 -10.14129 -13.21457 C -10.12 -13.21 -10.1 -13.21 -10.08257 -13.2089 C -10.06 -13.21 -10.04 -13.21 -10.02013 -13.20407" />
    <path d="M -10.02013 -13.12703 L -9.23104 -12.82748 L -9.23104 -13.80886 L -10.02013 -14.10842 L -9.32737 -14.17572 Q -9.85 -14.16 -10.14129 -14.19596 Q -10.43 -14.23 -10.59009 -14.28739 Q -10.7 -14.33 -10.75699 -14.37049 Q -10.81 -14.41 -10.79375 -14.42348 Q -10.81 -14.41 -10.78718 -14.44427 Q -10.77 -14.48 -10.71014 -14.5085 Q -10.66 -14.54 -10.52705 -14.56675 Q -10.4 -14.59 -10.26517 -14.61794 Q -10.13 -14.64 -9.92678 -14.66606 Q -9.72 -14.69 -9.54026 -14.71044 Q -9.36 -14.73 -9.11005 -14.75381 Q -9.11 -14.75 -6.1559 -15.03662 Q -5.84 -15.07 -5.51928 -15.0785 Q -5.2 -15.09 -4.89044 -15.08075 Q -4.58 -15.07 -4.31826 -15.03387 Q -4.05 -15 -3.8845 -14.93257 Q -3.57 -14.81 -3.71422 -14.8079 Q -3.57 -14.81 -3.83754 -14.70909 L -2.3213 -14.8564 L -1.53221 -14.55684 L -9.23104 -13.80886" />
    <path d="M -8.50367 -12.59601 C -8.51 -12.59 -8.51 -12.59 -8.50859 -12.58572 C -8.51 -12.58 -8.51 -12.58 -8.51023 -12.57522 C -8.51 -12.57 -8.51 -12.57 -8.5079 -12.56239 C -8.51 -12.56 -8.5 -12.55 -8.50096 -12.54927 C -8.5 -12.54 -8.49 -12.54 -8.48946 -12.53588 C -8.48 -12.53 -8.48 -12.53 -8.47348 -12.52223 C -8.46 -12.52 -8.45 -12.51 -8.44305 -12.50196 C -8.43 -12.5 -8.42 -12.49 -8.40495 -12.48134 C -8.39 -12.47 -8.38 -12.47 -8.35938 -12.46039 C -8.34 -12.45 -8.33 -12.45 -8.30657 -12.43914 C -8.3 -12.44 -8.29 -12.43 -8.27978 -12.42949 C -8.27 -12.43 -8.26 -12.42 -8.25108 -12.42018 C -8.24 -12.42 -8.23 -12.41 -8.22046 -12.41123 C -8.21 -12.41 -8.2 -12.41 -8.18793 -12.40264 C -8.18 -12.4 -8.17 -12.4 -8.1535 -12.39442 C -8.14 -12.39 -8.13 -12.39 -8.11716 -12.38659 C -8.1 -12.38 -8.09 -12.38 -8.07894 -12.37915 C -8.07 -12.38 -8.05 -12.37 -8.03887 -12.3721 C -8.02 -12.37 -8.01 -12.37 -7.99632 -12.36537 C -7.98 -12.36 -7.97 -12.36 -7.95193 -12.35905 C -7.94 -12.36 -7.92 -12.36 -7.90573 -12.35316 C -7.89 -12.35 -7.87 -12.35 -7.85777 -12.3477 C -7.84 -12.35 -7.82 -12.34 -7.79905 -12.34202 C -7.78 -12.34 -7.76 -12.34 -7.73662 -12.3372" />
    <path d="M -7.73662 -12.26016 L -6.94753 -11.9606 L -5.51923 -12.09937" />
    <path d="M -5.51923 -11.41839 L -4.73895 -11.12218 L -4.24743 -11.16993" />
    <path d="M -4.24743 -10.93558 L -3.40764 -10.61678 L -3.27759 -10.64217" />
    <path d="M 5.25473 -7.32835 L 6.14519 -7.41486" />
    <path d="M 4.45241 -7.63293 L 5.25473 -7.32835 L 5.25473 -8.30974 L 4.45241 -8.61431 L 12.15125 -9.36229 L 12.95356 -9.05771 L 5.25473 -8.30974" />
    <path d="M 8.18627 -6.26013 C 8.18 -6.26 8.18 -6.25 8.18134 -6.24985 C 8.18 -6.25 8.18 -6.24 8.17971 -6.23934 C 8.18 -6.24 8.18 -6.23 8.18203 -6.22651 C 8.18 -6.22 8.19 -6.22 8.18898 -6.21339 C 8.19 -6.21 8.2 -6.2 8.20048 -6.2 C 8.21 -6.2 8.21 -6.19 8.21646 -6.18635 C 8.23 -6.18 8.24 -6.17 8.24689 -6.16608 C 8.26 -6.16 8.27 -6.15 8.28499 -6.14546 C 8.3 -6.14 8.31 -6.13 8.33055 -6.12451 C 8.35 -6.12 8.36 -6.11 8.38336 -6.10326 C 8.39 -6.1 8.4 -6.1 8.41016 -6.09361 C 8.42 -6.09 8.43 -6.09 8.43886 -6.08431 C 8.45 -6.08 8.46 -6.08 8.46948 -6.07535 C 8.48 -6.07 8.49 -6.07 8.502 -6.06676 C 8.51 -6.06 8.52 -6.06 8.53644 -6.05855 C 8.55 -6.06 8.56 -6.05 8.57278 -6.05071 C 8.59 -6.05 8.6 -6.05 8.61099 -6.04327 C 8.62 -6.04 8.64 -6.04 8.65107 -6.03623 C 8.66 -6.03 8.68 -6.03 8.69361 -6.02949 C 8.71 -6.03 8.72 -6.03 8.73801 -6.02317 C 8.75 -6.02 8.77 -6.02 8.78421 -6.01728 C 8.8 -6.02 8.82 -6.01 8.83216 -6.01182 C 8.85 -6.01 8.87 -6.01 8.89089 -6.00615 C 8.91 -6 8.93 -6 8.95332 -6.00132" />
    <path d="M 8.95332 -5.92428 L 9.5271 -5.70646" />
    <path d="M 44.87853 -2.92215 L 44.87853 16.70556" />
    <path d="M -11.57851 -15.59326 Q -10.71 -15.68 -10.14571 -15.67046 Q -9.66 -15.66 -9.12381 -15.58373 Q -8.85 -15.54 -8.03158 -15.38929 Q -8.03 -15.39 -8.01851 -15.39056 Q -7.88 -15.4 -7.79304 -15.41299 Q -7.71 -15.42 -7.59918 -15.43288 Q -7.49 -15.44 -7.42821 -15.45107 Q -7.37 -15.46 -7.29104 -15.46755 Q -7.22 -15.48 -7.18114 -15.48295 Q -7.15 -15.49 -7.10507 -15.4977 Q -7.06 -15.51 -7.05087 -15.51347 Q -7.04 -15.52 -7.03049 -15.52859 Q -7.02 -15.54 -7.02832 -15.53414 Q -7.02 -15.54 -7.03636 -15.54536 Q -7.05 -15.55 -7.07283 -15.56336 Q -7.24 -15.63 -7.59322 -15.59057 L -8.03327 -15.54781 L -8.80032 -15.839 Q -8.73 -15.85 -8.58903 -15.86058 Q -7.66 -15.95 -6.99939 -15.90836 Q -6.34 -15.87 -5.81755 -15.6664 Q -5.65 -15.6 -5.58281 -15.53262 Q -5.52 -15.46 -5.54557 -15.45302 Q -5.52 -15.46 -5.5663 -15.39341 Q -5.61 -15.32 -5.85893 -15.26041 Q -6.1 -15.2 -6.52568 -15.15622 L -11.50574 -14.67239 L -12.29042 -14.97027 L -11.61073 -15.03631 Q -11.94 -15.02 -12.31652 -15.05496 Q -12.7 -15.09 -12.86038 -15.14925 Q -12.98 -15.19 -13.02838 -15.23276 Q -13.08 -15.27 -13.05662 -15.2797 Q -13.08 -15.27 -13.04138 -15.31767 Q -13.01 -15.36 -12.85249 -15.40696 Q -12.7 -15.45 -12.38086 -15.49797 Q -12.06 -15.55 -11.57851 -15.59326 Z" />
    <path d="M -12.29042 -13.98889 L -12.29042 -14.97027" />
    <path d="M -11.50574 -13.691 L -11.50574 -14.67239" />
    <path d="M -8.80032 -15.52981 L -8.80032 -15.839" />
    <path d="M -8.03327 -15.38961 L -8.03327 -15.54781" />
    <path d="M -3.27759 -10.56741 L -3.27759 -11.5488 L 3.26227 -12.18418 L 4.05137 -11.88462 L 3.30196 -11.81181 Q 3.77 -11.83 4.10465 -11.80415 Q 4.44 -11.77 4.62358 -11.70271 Q 4.93 -11.58 4.80775 -11.56824 Q 4.93 -11.58 4.72069 -11.482 Q 4.51 -11.38 3.70533 -11.30138 L -1.33572 -10.81162 L -2.11379 -11.10699 L 2.76605 -11.58109 Q 2.97 -11.6 3.08581 -11.63213 Q 3.2 -11.66 3.1495 -11.66785 Q 3.2 -11.66 3.1082 -11.69841 Q 3.05 -11.72 2.94805 -11.72909 Q 2.85 -11.74 2.74585 -11.73729 Q 2.65 -11.74 2.50478 -11.72806 Q 2.36 -11.72 2.29224 -11.71319 Q 2.22 -11.71 2.10814 -11.69583 L -2.4885 -11.24924 L -3.27759 -11.5488" />
    <path d="M -2.4885 -10.26786 L -2.4885 -11.24924" />
    <path d="M -2.11379 -10.12561 L -2.11379 -11.10699" />
    <path d="M -1.33572 -9.83024 L -1.33572 -10.81162" />
    <path d="M 4.05137 -11.80861 L 4.05137 -11.88462" />
    <path d="M -0.1159 -10.31116 Q -1.1 -10.69 -0.43854 -10.53721 Q -1.1 -10.69 0.93136 -10.8837 L 3.55428 -11.13853 Q 4.49 -11.23 5.30452 -11.18247 Q 6.12 -11.14 6.57647 -10.96135 Q 7.04 -10.79 6.86126 -10.7532 Q 7.04 -10.79 6.75265 -10.63272 Q 6.47 -10.48 5.53141 -10.38797 L 2.9085 -10.13314 Q 1.88 -10.03 1.12681 -10.08037 Q 0.37 -10.13 -0.1159 -10.31116 Z" />
    <path d="M 9.60812 -9.59705 L 9.60812 -9.77307 L 5.79789 -9.31462 L 9.99605 -9.62581 L 10.78294 -9.32709 L 3.77133 -8.87287 L 2.87644 -9.21259 L 6.68425 -9.68027 L 2.47528 -9.36488 L 1.58039 -9.7046 L 7.6398 -10.52029 L 8.42668 -10.22157 L 4.62748 -9.75893 L 8.81462 -10.0743 L 9.60812 -9.77307" />
    <path d="M 8.42668 -10.04509 L 8.42668 -10.22157" />
    <path d="M 1.58039 -8.72321 L 1.58039 -9.7046" />
    <path d="M 2.47528 -8.38349 L 2.47528 -9.36488" />
    <path d="M 2.87644 -8.2312 L 2.87644 -9.21259" />
    <path d="M 3.77133 -7.89148 L 3.77133 -8.87287" />
    <path d="M 10.78294 -9.22935 L 10.78294 -9.32709" />
    <path d="M 10.04332 -7.56829 L 10.04332 -7.69465" />
    <path d="M 9.43296 -7.92635 L 9.43296 -8.18602" />
    <path d="M 10.57913 -7.61958 L 10.57913 -7.75091" />
    <path d="M 18.57466 -6.12146 L 18.57466 -6.36917" />
    <path d="M 10.76606 -6.36529 L 10.76606 -6.44809" />
    <path d="M 16.21297 -5.35251 L 16.21297 -5.61217" />
    <path d="M 17.35914 -4.19568 L 17.35914 -5.17706" />
    <path d="M -10.02013 -13.12703 L -10.02013 -14.10842" />
    <path d="M -1.53221 -14.03647 L -1.53221 -14.55684" />
    <path d="M -6.82653 -13.88694 Q -6.83 -13.89 -3.87238 -14.16974 Q -3.56 -14.2 -3.23577 -14.21163 Q -2.91 -14.22 -2.60692 -14.21387 Q -2.3 -14.2 -2.03474 -14.167 Q -1.77 -14.13 -1.60099 -14.06569 Q -1.29 -13.95 -1.4307 -13.94103 Q -1.29 -13.95 -1.55403 -13.84221 L -0.03779 -13.98952 L 0.7513 -13.68997 L -6.94753 -12.94199 L -7.73662 -13.24155 L -7.04385 -13.30885 Q -7.57 -13.3 -7.85777 -13.32908 Q -8.15 -13.36 -8.30657 -13.42052 Q -8.42 -13.46 -8.47348 -13.50362 Q -8.53 -13.54 -8.51023 -13.55661 Q -8.53 -13.54 -8.50367 -13.5774 Q -8.48 -13.61 -8.42663 -13.64163 Q -8.37 -13.67 -8.24353 -13.69988 Q -8.12 -13.73 -7.98165 -13.75107 Q -7.85 -13.77 -7.64327 -13.79918 Q -7.44 -13.82 -7.25675 -13.84356 Q -7.07 -13.86 -6.82653 -13.88694 Z" />
    <path d="M -7.73662 -12.26016 L -7.73662 -13.24155" />
    <path d="M -6.94753 -11.9606 L -6.94753 -12.94199" />
    <path d="M 0.7513 -13.00899 L 0.7513 -13.68997" />
    <path d="M -5.51923 -11.41839 L -5.51923 -12.39977 L 2.18832 -13.1486 L 2.96859 -12.85239 L -0.45602 -12.51967 L 2.17567 -12.5946 L 2.99342 -12.28416 L -0.34329 -12.19644 L -3.40764 -11.59817 L -4.24743 -11.91697 L -1.65855 -12.40284 L -4.73895 -12.10356 L -5.51923 -12.39977" />
    <path d="M -4.73895 -11.12218 L -4.73895 -12.10356" />
    <path d="M -4.24743 -10.93558 L -4.24743 -11.91697" />
    <path d="M -3.40764 -10.61678 L -3.40764 -11.59817" />
    <path d="M -0.34329 -11.83388 L -0.34329 -12.19644" />
    <path d="M 2.99342 -12.15806 L 2.99342 -12.28416" />
    <path d="M 2.96859 -12.29359 L 2.96859 -12.85239" />
    <path d="M 12.95356 -8.52856 L 12.95356 -9.05771" />
    <path d="M 4.45241 -7.63293 L 4.45241 -8.61431" />
    <path d="M 9.8634 -7.55106 Q 9.86 -7.55 12.81756 -7.83387 Q 13.13 -7.86 13.45417 -7.87575 Q 13.78 -7.89 14.08301 -7.878 Q 14.39 -7.87 14.65519 -7.83112 Q 14.92 -7.79 15.08895 -7.72982 Q 15.4 -7.61 15.25923 -7.60515 Q 15.4 -7.61 15.13591 -7.50634 L 16.65215 -7.65365 L 17.44124 -7.35409 L 9.74241 -6.60611 L 8.95332 -6.90567 L 9.64608 -6.97297 Q 9.12 -6.96 8.83216 -6.99321 Q 8.54 -7.02 8.38336 -7.08464 Q 8.27 -7.13 8.21646 -7.16774 Q 8.16 -7.21 8.17971 -7.22073 Q 8.16 -7.21 8.18627 -7.24152 Q 8.21 -7.28 8.26331 -7.30575 Q 8.32 -7.34 8.4464 -7.364 Q 8.57 -7.39 8.70828 -7.41519 Q 8.84 -7.44 9.04667 -7.46331 Q 9.25 -7.49 9.43319 -7.50769 Q 9.62 -7.53 9.8634 -7.55106 Z" />
    <path d="M 8.95332 -5.92428 L 8.95332 -6.90567" />
    <path d="M 9.74241 -6.46003 L 9.74241 -6.60611" />
    <path d="M 17.44124 -6.82666 L 17.44124 -7.35409" />
    <path d="M -10.164 -15.34711 Q -10.16 -15.35 -10.92648 -15.27303 Q -11.51 -15.22 -11.37077 -15.18045 Q -11.51 -15.22 -11.32963 -15.14979 Q -11.28 -15.13 -11.19359 -15.12307 Q -11.11 -15.11 -11.00562 -15.11611 Q -10.91 -15.12 -10.82016 -15.12257 Q -10.74 -15.13 -10.65234 -15.13572 L -8.93133 -15.30293 Q -9.3 -15.36 -9.58152 -15.37007 Q -9.87 -15.38 -10.164 -15.34711 Z" />
    <path d="M 4.60494 -10.85808 L 1.41126 -10.5478 Q 1.15 -10.52 1.08182 -10.4911 Q 1.01 -10.46 1.05088 -10.4627 Q 1.01 -10.46 1.09535 -10.42883 Q 1.18 -10.4 1.34852 -10.38985 Q 1.52 -10.38 1.78156 -10.40723 L 4.97524 -10.71751 Q 5.55 -10.77 5.40621 -10.80971 Q 5.55 -10.77 5.36086 -10.84325 Q 5.18 -10.91 4.60494 -10.85808 Z" />
    <path d="M 12.0015 -8.34309 Q 11.94 -8.37 11.83473 -8.37628 Q 11.73 -8.39 11.58348 -8.38129 Q 11.44 -8.38 11.29779 -8.36614 Q 11.16 -8.36 10.96658 -8.33712 Q 10.88 -8.33 10.69429 -8.30961 Q 10.51 -8.29 10.422 -8.28211 L 10.7923 -8.14154 L 11.472 -8.20757 Q 12.18 -8.28 12.03674 -8.31626 Q 12.18 -8.28 12.0015 -8.34309 Z" />
    <path d="M 16.45642 -6.63943 Q 16.4 -6.66 16.30605 -6.67159 Q 16.22 -6.68 16.09848 -6.67664 Q 15.98 -6.67 15.9131 -6.66704 Q 15.84 -6.66 15.73116 -6.65094 L 13.40452 -6.42489 Q 13.28 -6.41 13.20197 -6.40311 Q 13.12 -6.39 13.01702 -6.37569 Q 12.91 -6.36 12.88696 -6.33678 Q 12.86 -6.32 12.87941 -6.32402 Q 12.86 -6.32 12.92299 -6.29194 Q 13.11 -6.22 13.77041 -6.28599 L 16.09705 -6.51204 Q 16.28 -6.53 16.4156 -6.56768 Q 16.55 -6.61 16.49328 -6.61092 Q 16.55 -6.61 16.45642 -6.63943 Z" />
    <path d="M 18.78151 -5.76924 Q 18.72 -5.79 18.61474 -5.80243 Q 18.51 -5.81 18.36349 -5.80745 Q 18.22 -5.8 18.0778 -5.7923 Q 17.94 -5.78 17.74659 -5.76327 Q 17.66 -5.75 17.4743 -5.73577 Q 17.29 -5.72 17.20201 -5.70826 L 17.57231 -5.56769 L 18.25201 -5.63373 Q 18.96 -5.7 18.81676 -5.74241 Q 18.96 -5.7 18.78151 -5.76924 Z" />
    <path d="M -5.68061 -14.71078 L -8.13361 -14.47246" />
    <path d="M -8.42988 -14.44367 Q -8.41 -14.45 -8.39503 -14.44706 Q -8.37 -14.45 -8.24689 -14.46145 Q -8.16 -14.47 -8.13361 -14.47246" />
    <path d="M -8.42988 -14.44367 Q -9.25 -14.36 -9.09507 -14.31945 Q -9.25 -14.36 -9.05944 -14.29213 Q -9.02 -14.28 -8.97048 -14.27082 Q -8.92 -14.26 -8.84249 -14.26066 Q -8.77 -14.26 -8.70158 -14.25807 Q -8.63 -14.26 -8.53465 -14.26325 Q -8.43 -14.27 -8.36565 -14.27284 Q -8.3 -14.28 -8.18911 -14.28684 Q -8.08 -14.3 -8.03006 -14.30124 Q -7.98 -14.31 -7.87756 -14.31605 Q -7.78 -14.33 -7.75449 -14.32854 L -5.30149 -14.56686 Q -5.2 -14.58 -5.11094 -14.588 Q -5.02 -14.6 -4.91841 -14.61774 Q -4.82 -14.64 -4.78183 -14.65833 Q -4.75 -14.68 -4.76924 -14.67468 Q -4.75 -14.68 -4.80695 -14.70318 Q -4.87 -14.73 -4.97155 -14.73658 Q -5.07 -14.75 -5.20316 -14.74245 Q -5.33 -14.74 -5.43872 -14.73113 Q -5.55 -14.72 -5.68061 -14.71078" />
    <path d="M -3.3971 -13.8439 L -5.85009 -13.60558" />
    <path d="M -6.14637 -13.5768 Q -6.13 -13.58 -6.11151 -13.58019 Q -6.09 -13.58 -5.96337 -13.59458 Q -5.87 -13.6 -5.85009 -13.60558" />
    <path d="M -6.14637 -13.5768 Q -6.97 -13.5 -6.81155 -13.45257 Q -6.97 -13.5 -6.77593 -13.42526 Q -6.74 -13.41 -6.68697 -13.40395 Q -6.63 -13.4 -6.55897 -13.39379 Q -6.48 -13.39 -6.41806 -13.39119 Q -6.35 -13.39 -6.25114 -13.39638 Q -6.15 -13.4 -6.08214 -13.40596 Q -6.01 -13.41 -5.9056 -13.41996 Q -5.8 -13.43 -5.74654 -13.43436 Q -5.7 -13.44 -5.59405 -13.44918 Q -5.49 -13.46 -5.47098 -13.46166 L -3.01798 -13.69998 Q -2.92 -13.71 -2.82743 -13.72112 Q -2.74 -13.73 -2.6349 -13.75086 Q -2.53 -13.77 -2.49832 -13.79146 Q -2.46 -13.81 -2.48572 -13.8078 Q -2.46 -13.81 -2.52344 -13.83631 Q -2.59 -13.86 -2.68803 -13.86971 Q -2.79 -13.88 -2.91964 -13.87558 Q -3.05 -13.87 -3.15521 -13.86425 Q -3.26 -13.86 -3.3971 -13.8439" />
    <path d="M 13.29284 -7.50803 L 10.83985 -7.26971" />
    <path d="M 10.54357 -7.24092 Q 10.56 -7.24 10.57843 -7.24431 Q 10.6 -7.25 10.72656 -7.2587 Q 10.82 -7.27 10.83985 -7.26971" />
    <path d="M 10.54357 -7.24092 Q 9.72 -7.16 9.87839 -7.1167 Q 9.72 -7.16 9.91401 -7.08938 Q 9.95 -7.08 10.00297 -7.06807 Q 10.06 -7.06 10.13096 -7.05791 Q 10.21 -7.06 10.27188 -7.05532 Q 10.34 -7.05 10.4388 -7.0605 Q 10.54 -7.07 10.6078 -7.07009 Q 10.68 -7.07 10.78434 -7.08409 Q 10.89 -7.09 10.94339 -7.09849 Q 10.99 -7.1 11.09589 -7.1133 Q 11.2 -7.12 11.21896 -7.12579 L 13.67196 -7.36411 Q 13.77 -7.37 13.86251 -7.38525 Q 13.95 -7.4 14.05504 -7.41499 Q 14.16 -7.43 14.19162 -7.45558 Q 14.23 -7.48 14.20422 -7.47193 Q 14.23 -7.48 14.1665 -7.50043 Q 14.1 -7.52 14.00191 -7.53383 Q 13.9 -7.54 13.77029 -7.5397 Q 13.64 -7.54 13.53473 -7.52838 Q 13.43 -7.52 13.29284 -7.50803" />
    <path d="M -10.164 -15.18317 L -10.164 -15.34711" />
    <path d="M -5.68061 -14.53002 L -5.68061 -14.71078" />
    <path d="M -8.42988 -14.26912 L -8.42988 -14.44367" />
    <path d="M -3.3971 -13.66315 L -3.3971 -13.8439" />
    <path d="M -6.14637 -13.40225 L -6.14637 -13.5768" />
    <path d="M 13.29284 -7.32727 L 13.29284 -7.50803" />
    <path d="M 10.54357 -7.06637 L 10.54357 -7.24092" />
    <path d="M -13.02838 -14.25137 L -13.02838 -15.23276" />
    <path d="M -12.86038 -14.16786 L -12.86038 -15.14925" />
    <path d="M -12.31652 -14.07358 L -12.31652 -15.05496" />
    <path d="M -6.52568 -15.00122 L -6.52568 -15.15622" />
    <path d="M -5.85893 -15.06106 L -5.85893 -15.26041" />
    <path d="M -5.5663 -15.07674 L -5.5663 -15.39341" />
    <path d="M -7.59322 -15.43349 L -7.59322 -15.59057" />
    <path d="M -7.07283 -15.50555 L -7.07283 -15.56336" />
    <path d="M -7.03636 -15.5227 L -7.03636 -15.54536" />
    <path d="M 2.10814 -11.51717 L 2.10814 -11.69583" />
    <path d="M 2.29224 -11.53506 L 2.29224 -11.71319" />
    <path d="M 2.50478 -11.55571 L 2.50478 -11.72806" />
    <path d="M 2.74585 -11.57913 L 2.74585 -11.73729" />
    <path d="M 2.94805 -11.60375 L 2.94805 -11.72909" />
    <path d="M 3.1082 -11.63889 L 3.1082 -11.69841" />
    <path d="M 3.70533 -11.15238 L 3.70533 -11.30138" />
    <path d="M 4.72069 -11.1985 L 4.72069 -11.482" />
    <path d="M -0.1159 -9.32977 L -0.1159 -10.31116" />
    <path d="M 1.12681 -9.09898 L 1.12681 -10.08037" />
    <path d="M 2.9085 -9.88338 L 2.9085 -10.13314" />
    <path d="M 5.53141 -10.23647 L 5.53141 -10.38797" />
    <path d="M 6.75265 -10.40087 L 6.75265 -10.63272" />
    <path d="M 6.45031 -6.83709 L 6.45031 -7.81847" />
    <path d="M 7.09874 -6.66364 L 7.09874 -7.64502" />
    <path d="M 7.86368 -6.5924 L 7.86368 -7.57379" />
    <path d="M 8.70305 -7.41429 L 8.70305 -7.5844" />
    <path d="M 9.67297 -7.5323 L 9.67297 -7.65867" />
    <path d="M 7.64433 -7.9511 L 7.64433 -7.97074" />
    <path d="M 7.7602 -7.90764 L 7.7602 -8.00984" />
    <path d="M 7.96252 -7.89312 L 7.96252 -8.04106" />
    <path d="M 8.22387 -7.90074 L 8.22387 -8.0696" />
    <path d="M 8.37529 -7.90998 L 8.37529 -8.08379" />
    <path d="M 8.51799 -7.92051 L 8.51799 -8.09713" />
    <path d="M 11.80355 -7.7368 L 11.80355 -7.86566" />
    <path d="M 12.27846 -7.78226 L 12.27846 -7.9118" />
    <path d="M 10.00498 -5.06804 L 10.00498 -6.04942" />
    <path d="M 10.56478 -4.90226 L 10.56478 -5.88365" />
    <path d="M 11.22656 -4.80787 L 11.22656 -5.78926" />
    <path d="M 12.07429 -4.78935 L 12.07429 -5.77073" />
    <path d="M 13.14583 -5.61111 L 13.14583 -5.84174" />
    <path d="M 17.35853 -6.6346 L 17.35853 -6.67401" />
    <path d="M 17.48229 -6.64662 L 17.48229 -6.74751" />
    <path d="M 11.25679 -6.13502 L 11.25679 -6.42244" />
    <path d="M 11.427 -6.11714 L 11.427 -6.29898" />
    <path d="M 13.23032 -4.26324 L 13.23032 -5.24463" />
    <path d="M 13.87875 -4.08979 L 13.87875 -5.07118" />
    <path d="M 14.6437 -4.01856 L 14.6437 -4.99994" />
    <path d="M 15.48306 -4.02917 L 15.48306 -5.01056" />
    <path d="M 16.45298 -4.10344 L 16.45298 -5.08482" />
    <path d="M 14.42435 -5.37726 L 14.42435 -5.39689" />
    <path d="M 14.54022 -5.33379 L 14.54022 -5.436" />
    <path d="M 14.74253 -5.31927 L 14.74253 -5.46721" />
    <path d="M 15.00388 -5.32689 L 15.00388 -5.49576" />
    <path d="M 15.1553 -5.33613 L 15.1553 -5.50994" />
    <path d="M 15.298 -5.34666 L 15.298 -5.52328" />
    <path d="M 18.58356 -4.31043 L 18.58356 -5.29182" />
    <path d="M 19.05847 -4.35657 L 19.05847 -5.33796" />
    <path d="M -10.75699 -13.3891 L -10.75699 -14.37049" />
    <path d="M -10.59009 -13.30601 L -10.59009 -14.28739" />
    <path d="M -10.14129 -13.21457 L -10.14129 -14.19596" />
    <path d="M -8.47348 -12.52223 L -8.47348 -13.50362" />
    <path d="M -8.30657 -12.43914 L -8.30657 -13.42052" />
    <path d="M -7.85777 -12.3477 L -7.85777 -13.32908" />
    <path d="M 8.21646 -6.18635 L 8.21646 -7.16774" />
    <path d="M 8.38336 -6.10326 L 8.38336 -7.08464" />
    <path d="M 8.83216 -6.01182 L 8.83216 -6.99321" />
    <path d="M -10.92648 -15.11783 L -10.92648 -15.27303" />
    <path d="M -9.58152 -15.23976 L -9.58152 -15.37007" />
    <path d="M 1.41126 -10.38807 L 1.41126 -10.5478" />
    <path d="M 4.60494 -10.68153 L 4.60494 -10.85808" />
    <path d="M 1.08182 -10.43444 L 1.08182 -10.4911" />
    <path d="M 5.36086 -10.77794 L 5.36086 -10.84325" />
    <path d="M 11.83473 -8.25151 L 11.83473 -8.37628" />
    <path d="M 12.0015 -8.2893 L 12.0015 -8.34309" />
    <path d="M 11.58348 -8.21899 L 11.58348 -8.38129" />
    <path d="M 11.29779 -8.19065 L 11.29779 -8.36614" />
    <path d="M 10.96658 -8.15847 L 10.96658 -8.33712" />
    <path d="M 10.69429 -8.17874 L 10.69429 -8.30961" />
    <path d="M 16.30605 -6.54166 L 16.30605 -6.67159" />
    <path d="M 16.45642 -6.58137 L 16.45642 -6.63943" />
    <path d="M 16.09848 -6.51218 L 16.09848 -6.67664" />
    <path d="M 15.9131 -6.49417 L 15.9131 -6.66704" />
    <path d="M 15.73116 -6.47649 L 15.73116 -6.65094" />
    <path d="M 13.40452 -6.25899 L 13.40452 -6.42489" />
    <path d="M 13.20197 -6.25562 L 13.20197 -6.40311" />
    <path d="M 13.01702 -6.26907 L 13.01702 -6.37569" />
    <path d="M 12.88696 -6.31092 L 12.88696 -6.33678" />
    <path d="M 18.61474 -5.67766 L 18.61474 -5.80243" />
    <path d="M 18.78151 -5.71546 L 18.78151 -5.76924" />
    <path d="M 18.36349 -5.64514 L 18.36349 -5.80745" />
    <path d="M 18.0778 -5.6168 L 18.0778 -5.7923" />
    <path d="M 17.74659 -5.58462 L 17.74659 -5.76327" />
    <path d="M 17.4743 -5.6049 L 17.4743 -5.73577" />
    <path d="M -4.80695 -14.64596 L -4.80695 -14.70318" />
    <path d="M -4.97155 -14.60854 L -4.97155 -14.73658" />
    <path d="M -5.20316 -14.57708 L -5.20316 -14.74245" />
    <path d="M -5.43872 -14.55352 L -5.43872 -14.73113" />
    <path d="M -2.52344 -13.77908 L -2.52344 -13.83631" />
    <path d="M -2.68803 -13.74166 L -2.68803 -13.86971" />
    <path d="M -2.91964 -13.7102 L -2.91964 -13.87558" />
    <path d="M -3.15521 -13.68665 L -3.15521 -13.86425" />
    <path d="M 14.1665 -7.44321 L 14.1665 -7.50043" />
    <path d="M 14.00191 -7.40579 L 14.00191 -7.53383" />
    <path d="M 13.77029 -7.37432 L 13.77029 -7.5397" />
    <path d="M 13.53473 -7.35077 L 13.53473 -7.52838" />
    <path d="M -13.05662 -14.29831 L -13.05662 -15.2797" />
    <path d="M -5.54557 -15.07754 L -5.54557 -15.45302" />
    <path d="M 4.80775 -11.19827 L 4.80775 -11.56824" />
    <path d="M -0.43854 -9.55582 L -0.43854 -10.53721" />
    <path d="M 6.86126 -10.41549 L 6.86126 -10.7532" />
    <path d="M 13.50521 -7.87743 L 13.50521 -8.2293" />
    <path d="M 6.14519 -7.05576 L 6.14519 -8.03715" />
    <path d="M 17.48541 -6.64692 L 17.48541 -6.76544" />
    <path d="M 11.2567 -6.13503 L 11.2567 -6.42522" />
    <path d="M 9.5271 -5.36781 L 9.5271 -6.34919" />
    <path d="M 12.9252 -4.48192 L 12.9252 -5.4633" />
    <path d="M -10.79375 -13.44209 L -10.79375 -14.42348" />
    <path d="M -3.71422 -14.72107 L -3.71422 -14.8079" />
    <path d="M -8.51023 -12.57522 L -8.51023 -13.55661" />
    <path d="M -1.4307 -13.85419 L -1.4307 -13.94103" />
    <path d="M 8.17971 -6.23934 L 8.17971 -7.22073" />
    <path d="M 15.25923 -7.51832 L 15.25923 -7.60515" />
</svg>