<svg version="1.1" xmlns="http://www.w3.org/2000/svg" viewBox="-45.869608976184125 -23.97360854637936 91.73921795236825 49.712325512292466" fill="none" stroke="black" stroke-width="0.6%" vector-effect="non-scaling-stroke">
    <path d="M -44.86961 4.6901 L 0.24781 24.73872 L 0.24781 5.24993 L 44.86961 0.1821 L 7.28622 -16.51865" />
    <path d="M -44.86961 4.6901 L -44.86961 -5.0543 L -37.33557 -1.70643 L -37.33557 -11.45083 L 0.24781 5.24993" />
    <path d="M 0.24781 24.73872 L 44.86961 19.67089" />
    <path d="M -37.33557 -5.90996 L -44.86961 -5.0543" />
    <path d="M -37.33557 -11.45083 A 50 11.23253 0 0 1 -17.28032 -15.41297" />
    <path d="M -2.33699 -16.43009 A 50 11.23253 0 0 1 7.28622 -16.51865" />
    <path d="M -9.46152 -10.94132 L -8.99669 -10.73476 L -7.70437 -10.75616 L -6.44503 -10.89919 L -6.44503 -15.77139 L -7.70437 -15.62836 L -8.99669 -15.60696 L -9.46152 -15.81352 L -8.28773 -15.8657 L -8.56751 -15.99003 L -7.26895 -16.13751 L -6.44503 -15.77139" />
    <path d="M -15.17117 -14.07149 C -15.17 -14.07 -15.17 -14.06 -15.16943 -14.05726 C -15.17 -14.05 -15.17 -14.05 -15.16418 -14.04337 C -15.16 -14.04 -15.16 -14.03 -15.15538 -14.02983 C -15.15 -14.03 -15.15 -14.02 -15.143 -14.01666 C -15.14 -14.01 -15.13 -14.01 -15.12941 -14.00511 C -15.12 -14 -15.12 -14 -15.11362 -13.99335 C -15.11 -13.99 -15.1 -13.99 -15.09568 -13.9814 C -15.09 -13.98 -15.08 -13.97 -15.07563 -13.96927 C -15.06 -13.96 -15.05 -13.95 -15.02935 -13.94445 C -15.01 -13.94 -14.99 -13.93 -14.97512 -13.91896 C -14.97 -13.92 -14.96 -13.91 -14.95387 -13.91001 C -14.95 -13.91 -14.94 -13.9 -14.93093 -13.90133 C -14.92 -13.9 -14.91 -13.9 -14.90632 -13.89292 C -14.9 -13.89 -14.89 -13.89 -14.88005 -13.88479 C -14.87 -13.88 -14.87 -13.88 -14.8587 -13.87871 C -14.85 -13.88 -14.84 -13.87 -14.83638 -13.87281 C -14.83 -13.87 -14.82 -13.87 -14.81311 -13.86708 C -14.81 -13.87 -14.8 -13.86 -14.7889 -13.86152 C -14.77 -13.86 -14.76 -13.85 -14.73772 -13.85093 C -14.72 -13.85 -14.7 -13.84 -14.68296 -13.84105 C -14.66 -13.84 -14.64 -13.83 -14.62478 -13.83189 C -14.6 -13.83 -14.58 -13.83 -14.56334 -13.82343 C -14.54 -13.82 -14.52 -13.82 -14.49881 -13.81568 C -14.48 -13.81 -14.45 -13.81 -14.43139 -13.80863 C -14.42 -13.81 -14.41 -13.81 -14.40541 -13.80615" />
    <path d="M -14.40541 -13.70956 L -13.62114 -13.36106 L -13.25985 -13.40209" />
    <path d="M -13.25985 -13.20051 L -12.47118 -12.85006 L -11.81486 -12.9246" />
    <path d="M -6.07059 -10.0275 C -6.07 -10.02 -6.07 -10.02 -6.06884 -10.01327 C -6.07 -10.01 -6.07 -10 -6.06359 -9.99938 C -6.06 -9.99 -6.06 -9.99 -6.05479 -9.98584 C -6.05 -9.98 -6.05 -9.98 -6.04242 -9.97267 C -6.04 -9.97 -6.03 -9.97 -6.02882 -9.96112 C -6.02 -9.96 -6.02 -9.95 -6.01303 -9.94937 C -6.01 -9.95 -6 -9.94 -5.99509 -9.93742 C -5.99 -9.93 -5.98 -9.93 -5.97504 -9.92528 C -5.96 -9.92 -5.95 -9.91 -5.92876 -9.90046 C -5.91 -9.89 -5.89 -9.88 -5.87453 -9.87497 C -5.87 -9.87 -5.86 -9.87 -5.85328 -9.86603 C -5.85 -9.86 -5.84 -9.86 -5.83034 -9.85735 C -5.82 -9.85 -5.81 -9.85 -5.80573 -9.84894 C -5.8 -9.85 -5.79 -9.84 -5.77946 -9.8408 C -5.77 -9.84 -5.77 -9.84 -5.75811 -9.83473 C -5.75 -9.83 -5.74 -9.83 -5.73579 -9.82882 C -5.73 -9.83 -5.72 -9.82 -5.71253 -9.82309 C -5.7 -9.82 -5.7 -9.82 -5.68832 -9.81753 C -5.67 -9.81 -5.65 -9.81 -5.63713 -9.80695 C -5.62 -9.8 -5.6 -9.8 -5.58237 -9.79707 C -5.56 -9.79 -5.54 -9.79 -5.52419 -9.7879 C -5.5 -9.78 -5.48 -9.78 -5.46275 -9.77945 C -5.44 -9.78 -5.42 -9.77 -5.39822 -9.7717 C -5.38 -9.77 -5.35 -9.77 -5.3308 -9.76464 C -5.32 -9.76 -5.31 -9.76 -5.30482 -9.76217" />
    <path d="M -5.30482 -9.66557 L -4.52055 -9.31707 L -3.80891 -9.3979" />
    <path d="M 3.70324 -5.6627 L 4.49192 -5.31224 L 4.86642 -5.35478" />
    <path d="M 4.86642 -5.14582 L 5.64408 -4.80026 L 6.54088 -4.90211" />
    <path d="M 6.54088 -4.47909 C 6.54 -4.47 6.54 -4.47 6.54257 -4.46148 C 6.54 -4.46 6.55 -4.45 6.54775 -4.44328 C 6.55 -4.44 6.55 -4.43 6.55627 -4.42512 C 6.56 -4.42 6.56 -4.41 6.56797 -4.40703 C 6.57 -4.4 6.58 -4.4 6.58267 -4.38902 C 6.59 -4.38 6.6 -4.37 6.60521 -4.36647 C 6.61 -4.36 6.62 -4.35 6.63192 -4.34412 C 6.64 -4.34 6.65 -4.33 6.66248 -4.32198 C 6.67 -4.31 6.68 -4.31 6.69659 -4.30006 C 6.7 -4.3 6.71 -4.29 6.71489 -4.28919 C 6.72 -4.29 6.73 -4.28 6.73397 -4.27838 C 6.74 -4.27 6.75 -4.27 6.7538 -4.26763 C 6.76 -4.26 6.77 -4.26 6.77435 -4.25693 C 6.78 -4.25 6.79 -4.25 6.79559 -4.2463 C 6.8 -4.24 6.81 -4.24 6.8175 -4.23573 C 6.82 -4.23 6.83 -4.23 6.84005 -4.22521 C 6.85 -4.22 6.86 -4.22 6.86321 -4.21476 C 6.88 -4.21 6.89 -4.2 6.90695 -4.19589 C 6.92 -4.19 6.94 -4.18 6.95256 -4.17733 C 6.97 -4.17 6.98 -4.17 7.00013 -4.15914 C 7.02 -4.15 7.03 -4.15 7.04974 -4.14132 C 7.07 -4.14 7.08 -4.13 7.10144 -4.12392 C 7.12 -4.12 7.14 -4.11 7.15531 -4.10697 C 7.17 -4.1 7.19 -4.1 7.21142 -4.09051 C 7.23 -4.09 7.25 -4.08 7.26981 -4.07459 C 7.28 -4.07 7.3 -4.07 7.31039 -4.06421 C 7.32 -4.06 7.34 -4.06 7.35204 -4.05409 C 7.37 -4.05 7.38 -4.05 7.39477 -4.04427 C 7.41 -4.04 7.42 -4.04 7.43858 -4.03476 C 7.45 -4.03 7.47 -4.03 7.48346 -4.02556 C 7.5 -4.02 7.51 -4.02 7.52943 -4.0167 C 7.54 -4.01 7.56 -4.01 7.57647 -4.00818 C 7.59 -4.01 7.61 -4 7.62457 -4.00003 C 7.64 -4 7.66 -4 7.67116 -3.99265 C 7.69 -3.99 7.7 -3.99 7.71867 -3.98562 C 7.73 -3.98 7.75 -3.98 7.76708 -3.97895 C 7.78 -3.98 7.8 -3.97 7.81636 -3.97265 C 7.83 -3.97 7.85 -3.97 7.86649 -3.96673 C 7.88 -3.96 7.9 -3.96 7.91743 -3.9612 C 7.93 -3.96 7.95 -3.96 7.96914 -3.95607 C 7.99 -3.95 8 -3.95 8.02159 -3.95134 C 8.05 -3.95 8.08 -3.95 8.1056 -3.94471 C 8.12 -3.94 8.14 -3.94 8.15998 -3.94103 C 8.18 -3.94 8.2 -3.94 8.21496 -3.93779 C 8.23 -3.94 8.25 -3.94 8.27047 -3.93498 C 8.29 -3.93 8.31 -3.93 8.32646 -3.93262 C 8.35 -3.93 8.36 -3.93 8.38288 -3.93069 C 8.4 -3.93 8.42 -3.93 8.43966 -3.92919 C 8.46 -3.93 8.48 -3.93 8.49677 -3.92812 C 8.52 -3.93 8.53 -3.93 8.55413 -3.92747 C 8.56 -3.93 8.56 -3.93 8.55865 -3.92744" />
    <path d="M 8.55865 -3.50513 L 9.45307 -3.10768 L 9.85401 -3.1428" />
    <path d="M 9.85401 -2.92951 L 10.74843 -2.53206 L 11.42916 -2.5836" />
    <path d="M 13.17841 -1.44862 C 13.18 -1.44 13.19 -1.44 13.19841 -1.43011 C 13.21 -1.42 13.21 -1.42 13.22169 -1.41151 C 13.23 -1.41 13.24 -1.4 13.24819 -1.39282 C 13.26 -1.39 13.27 -1.38 13.27781 -1.37406 C 13.29 -1.37 13.3 -1.36 13.31048 -1.35525 C 13.32 -1.35 13.33 -1.34 13.34612 -1.33637 C 13.37 -1.32 13.4 -1.31 13.42595 -1.29851 C 13.45 -1.29 13.47 -1.28 13.49827 -1.2676 C 13.52 -1.26 13.55 -1.25 13.57405 -1.23775 C 13.6 -1.23 13.63 -1.22 13.65347 -1.20907 C 13.68 -1.2 13.71 -1.19 13.7367 -1.18169 C 13.75 -1.18 13.76 -1.17 13.77589 -1.16971 C 13.79 -1.17 13.8 -1.16 13.81591 -1.15804 C 13.83 -1.15 13.84 -1.15 13.85678 -1.1467 C 13.87 -1.14 13.88 -1.14 13.89851 -1.13571 C 13.91 -1.13 13.93 -1.13 13.94111 -1.12508 C 13.96 -1.12 13.97 -1.12 13.98457 -1.11484 C 14 -1.11 14.01 -1.11 14.02892 -1.10499 C 14.04 -1.1 14.06 -1.1 14.07414 -1.09557 C 14.1 -1.09 14.12 -1.09 14.14591 -1.08181 C 14.17 -1.08 14.19 -1.07 14.21984 -1.06912 C 14.24 -1.07 14.27 -1.06 14.29589 -1.05753 C 14.32 -1.05 14.35 -1.05 14.37399 -1.04711 C 14.39 -1.05 14.4 -1.04 14.41378 -1.04235 C 14.43 -1.04 14.44 -1.04 14.45404 -1.0379 C 14.47 -1.04 14.48 -1.04 14.49478 -1.03376 C 14.51 -1.03 14.52 -1.03 14.53597 -1.02994 C 14.55 -1.03 14.56 -1.03 14.57759 -1.02644 C 14.59 -1.03 14.61 -1.02 14.61962 -1.02326 C 14.63 -1.02 14.65 -1.02 14.66206 -1.02041 C 14.68 -1.02 14.69 -1.02 14.70487 -1.01789 C 14.73 -1.02 14.75 -1.02 14.77154 -1.01465 C 14.79 -1.01 14.82 -1.01 14.83898 -1.0122 C 14.89 -1.01 14.93 -1.01 14.97842 -1.00903 C 15.01 -1.01 15.04 -1.01 15.06637 -1.00812 C 15.1 -1.01 15.13 -1.01 15.15451 -1.00805" />
    <path d="M 13.12456 -1.57709 C 13.12 -1.57 13.12 -1.57 13.12199 -1.56578 C 13.12 -1.56 13.12 -1.56 13.12113 -1.55423 C 13.12 -1.55 13.12 -1.55 13.12207 -1.54181 C 13.12 -1.54 13.12 -1.53 13.12486 -1.52915 C 13.13 -1.52 13.13 -1.51 13.13585 -1.50314 C 13.14 -1.49 13.15 -1.49 13.1538 -1.47628 C 13.16 -1.47 13.17 -1.46 13.17841 -1.44862 L 13.17841 -6.32081 Q 13.11 -6.39 13.12113 -6.42642 Q 13.11 -6.39 13.12456 -6.44929 Q 13.14 -6.51 13.24689 -6.55783 Q 13.35 -6.61 13.49294 -6.64907 Q 13.63 -6.69 13.84407 -6.72644 Q 14.05 -6.76 14.24679 -6.79061 Q 14.44 -6.82 14.68355 -6.84452 L 17.31118 -7.14295 Q 18.21 -7.25 18.95142 -7.18358 Q 19.69 -7.12 20.15887 -6.91326 Q 21.11 -6.49 20.48142 -6.65096 Q 21.11 -6.49 19.25423 -6.27953 L 18.77925 -6.22558 Q 17.89 -6.13 17.55467 -6.09142 L 16.40911 -6.60047 L 15.49402 -6.49654 Q 15.45 -6.49 15.35129 -6.48094 Q 15.25 -6.47 15.19985 -6.46436 Q 15.04 -6.45 14.93847 -6.43098 Q 14.83 -6.42 14.73611 -6.39448 Q 14.64 -6.37 14.62018 -6.34874 Q 14.6 -6.32 14.61609 -6.33737 Q 14.6 -6.32 14.6638 -6.29654 Q 14.73 -6.27 14.85667 -6.26067 Q 14.99 -6.25 15.16994 -6.26491 Q 15.35 -6.28 15.48937 -6.28951 Q 15.62 -6.3 15.82059 -6.32467 Q 16.2 -6.37 16.23451 -6.37414 L 17.01878 -6.02564 L 16.64839 -5.98357 Q 16.1 -5.92 15.67836 -5.89676 Q 15.25 -5.87 14.83898 -5.88439 Q 14.42 -5.9 14.07414 -5.96776 Q 13.72 -6.04 13.42595 -6.1707 Q 13.25 -6.25 13.17841 -6.32081" />
    <path d="M 16.54848 0.52059 C 16.55 0.53 16.56 0.53 16.56425 0.53559 C 16.57 0.54 16.58 0.55 16.58184 0.55072 C 16.59 0.56 16.59 0.56 16.60118 0.56598 C 16.61 0.57 16.61 0.58 16.62218 0.58134 C 16.63 0.59 16.64 0.59 16.64476 0.5968 C 16.65 0.6 16.66 0.61 16.66884 0.61235 C 16.68 0.62 16.69 0.62 16.69436 0.62798 C 16.7 0.63 16.71 0.64 16.72123 0.64368 C 16.73 0.65 16.74 0.65 16.7494 0.65944 C 16.76 0.66 16.77 0.67 16.77881 0.67526 C 16.79 0.68 16.8 0.69 16.80939 0.69113 C 16.82 0.7 16.83 0.7 16.84109 0.70705 C 16.85 0.71 16.86 0.72 16.87387 0.72301 C 16.88 0.73 16.9 0.73 16.90766 0.739 C 16.92 0.74 16.93 0.75 16.94244 0.75503 C 16.95 0.76 16.97 0.77 16.97815 0.77109 C 17 0.78 17.02 0.79 17.04136 0.79843 C 17.06 0.81 17.08 0.82 17.10636 0.82504 C 17.13 0.83 17.15 0.84 17.17323 0.85084 C 17.2 0.86 17.22 0.87 17.24202 0.87577 C 17.27 0.88 17.29 0.89 17.31282 0.89974 C 17.34 0.91 17.36 0.92 17.38567 0.92267 C 17.41 0.93 17.44 0.94 17.46062 0.94447 C 17.49 0.95 17.51 0.96 17.53772 0.96504 C 17.56 0.97 17.58 0.98 17.59974 0.98019 C 17.62 0.99 17.64 0.99 17.66404 0.99461 C 17.69 1 17.71 1 17.73063 1.00827 C 17.75 1.01 17.78 1.02 17.79948 1.02114 C 17.82 1.03 17.85 1.03 17.87054 1.03322 C 17.89 1.04 17.92 1.04 17.94378 1.04447 C 17.97 1.05 17.99 1.05 18.01915 1.05488 C 18.04 1.06 18.07 1.06 18.09657 1.06444 C 18.11 1.07 18.13 1.07 18.14757 1.07014 C 18.16 1.07 18.18 1.07 18.19937 1.07549 C 18.22 1.08 18.23 1.08 18.24689 1.07994 C 18.26 1.08 18.28 1.08 18.29518 1.08398 C 18.31 1.09 18.33 1.09 18.34423 1.0876 C 18.36 1.09 18.38 1.09 18.39399 1.09079 C 18.43 1.09 18.46 1.09 18.49553 1.09594 C 18.53 1.1 18.56 1.1 18.59952 1.09942 C 18.64 1.1 18.67 1.1 18.70874 1.10131 C 18.75 1.1 18.78 1.1 18.81994 1.10153 C 18.86 1.1 18.89 1.1 18.93281 1.10014 C 18.95 1.1 18.97 1.1 18.98978 1.09887 C 19.01 1.1 19.03 1.1 19.04707 1.09721 C 19.07 1.1 19.08 1.1 19.10398 1.09522 C 19.12 1.09 19.14 1.09 19.16121 1.09288 C 19.18 1.09 19.2 1.09 19.21873 1.0902 C 19.24 1.09 19.26 1.09 19.2765 1.08719 C 19.3 1.09 19.32 1.09 19.3345 1.08387 C 19.35 1.08 19.37 1.08 19.39271 1.08024 C 19.41 1.08 19.43 1.08 19.45109 1.07631 C 19.47 1.07 19.49 1.07 19.50964 1.07211 C 19.54 1.07 19.57 1.07 19.60626 1.06458 C 19.64 1.06 19.67 1.06 19.70317 1.05636 C 19.74 1.05 19.77 1.05 19.80029 1.04747 C 19.83 1.04 19.87 1.04 19.89756 1.03796" />
    <path d="M 16.50069 0.42053 C 16.5 0.42 16.5 0.43 16.50142 0.43329 C 16.5 0.44 16.5 0.44 16.50362 0.44599 C 16.5 0.45 16.51 0.45 16.5073 0.45863 C 16.51 0.46 16.51 0.47 16.51249 0.47119 C 16.51 0.48 16.52 0.48 16.51919 0.48367 C 16.52 0.49 16.52 0.49 16.52741 0.49607 C 16.53 0.5 16.53 0.5 16.53717 0.50837 C 16.54 0.51 16.54 0.52 16.54848 0.52059 L 16.54848 -4.35161 Q 16.44 -4.46 16.50069 -4.45167 Q 16.44 -4.46 16.5712 -4.58342 L 17.73979 -4.56742 Q 17.69 -4.4 17.73204 -4.51793 Q 17.69 -4.4 17.97708 -4.27233 Q 18.16 -4.19 18.48125 -4.17472 Q 18.8 -4.16 19.21439 -4.2039 L 19.57607 -4.24498 Q 18.81 -4.21 18.40052 -4.39294 Q 18.23 -4.47 18.2304 -4.54055 Q 18.23 -4.47 18.23049 -4.54387 Q 18.23 -4.62 18.3949 -4.67747 Q 18.56 -4.74 18.81092 -4.78679 Q 19.07 -4.84 19.41078 -4.87519 L 21.86411 -5.15383 Q 22.37 -5.21 22.77535 -5.23151 Q 23.18 -5.25 23.46753 -5.23391 Q 23.76 -5.22 23.96111 -5.17505 Q 24.16 -5.13 24.31813 -5.06502 Q 24.4 -5.03 24.43308 -4.9945 Q 24.47 -4.96 24.45958 -4.93832 Q 24.47 -4.96 24.45644 -4.91726 Q 24.44 -4.88 24.33257 -4.83128 Q 24.22 -4.79 24.00775 -4.7483 L 24.74418 -4.83194 L 25.54828 -4.47463 L 20.11871 -3.85798 Q 19.52 -3.79 19.04707 -3.77498 Q 18.57 -3.76 18.19937 -3.79671 Q 17.83 -3.83 17.53772 -3.90716 Q 17.25 -3.98 16.97815 -4.10111 Q 16.65 -4.25 16.54848 -4.35161" />
    <path d="M 19.95484 1.56259 C 19.96 1.57 19.97 1.57 19.97484 1.5811 C 19.98 1.59 19.99 1.59 19.99812 1.5997 C 20.01 1.61 20.02 1.61 20.02461 1.61839 C 20.03 1.62 20.04 1.63 20.05423 1.63714 C 20.06 1.64 20.08 1.65 20.0869 1.65596 C 20.1 1.66 20.11 1.67 20.12254 1.67484 C 20.15 1.69 20.17 1.7 20.20237 1.7127 C 20.23 1.72 20.25 1.73 20.27469 1.74361 C 20.3 1.75 20.32 1.76 20.35047 1.77346 C 20.38 1.78 20.4 1.79 20.42989 1.80214 C 20.46 1.81 20.48 1.82 20.51312 1.82952 C 20.53 1.83 20.54 1.84 20.55231 1.8415 C 20.57 1.85 20.58 1.85 20.59234 1.85317 C 20.61 1.86 20.62 1.86 20.63321 1.86451 C 20.65 1.87 20.66 1.87 20.67494 1.8755 C 20.69 1.88 20.7 1.88 20.71753 1.88613 C 20.73 1.89 20.75 1.89 20.761 1.89637 C 20.78 1.9 20.79 1.9 20.80534 1.90621 C 20.82 1.91 20.84 1.91 20.85056 1.91564 C 20.87 1.92 20.9 1.92 20.92234 1.92939 C 20.95 1.93 20.97 1.94 20.99627 1.94209 C 21.02 1.95 21.05 1.95 21.07232 1.95368 C 21.1 1.96 21.12 1.96 21.15041 1.9641 C 21.16 1.97 21.18 1.97 21.1902 1.96885 C 21.2 1.97 21.22 1.97 21.23047 1.97331 C 21.24 1.97 21.26 1.98 21.2712 1.97744 C 21.28 1.98 21.3 1.98 21.31239 1.98127 C 21.33 1.98 21.34 1.98 21.35401 1.98477 C 21.37 1.99 21.38 1.99 21.39605 1.98795 C 21.41 1.99 21.42 1.99 21.43848 1.9908 C 21.45 1.99 21.47 1.99 21.4813 1.99332 C 21.5 1.99 21.53 2 21.54796 1.99656 C 21.57 2 21.59 2 21.61541 1.99901 C 21.66 2 21.71 2 21.75485 2.00218 C 21.78 2 21.81 2 21.84213 2.00309 C 21.87 2 21.9 2 21.92961 2.00317 C 21.96 2 21.99 2 22.0172 2.00242 C 22.05 2 22.08 2 22.10484 2.00087 C 22.13 2 22.16 2 22.19249 1.9985 C 22.22 2 22.25 2 22.28006 1.99533 C 22.31 1.99 22.34 1.99 22.36752 1.99138 C 22.4 1.99 22.43 1.99 22.45479 1.98665 C 22.47 1.99 22.49 1.98 22.51288 1.9831 C 22.53 1.98 22.55 1.98 22.57142 1.97926 C 22.59 1.98 22.61 1.98 22.63039 1.97514 C 22.65 1.97 22.67 1.97 22.68976 1.97074 C 22.71 1.97 22.73 1.97 22.74951 1.96608 C 22.77 1.96 22.79 1.96 22.80959 1.96116 C 22.83 1.96 22.85 1.96 22.87 1.956 C 22.89 1.95 22.91 1.95 22.93071 1.9506 C 22.95 1.95 22.97 1.95 22.99169 1.94497 C 23.01 1.94 23.03 1.94 23.05293 1.93912 C 23.07 1.94 23.09 1.94 23.11441 1.93306 C 23.13 1.93 23.16 1.93 23.17611 1.9268 C 23.2 1.92 23.22 1.92 23.23801 1.92033 C 23.26 1.92 23.28 1.92 23.30011 1.91368 C 23.32 1.91 23.34 1.91 23.36238 1.90685 C 23.38 1.9 23.4 1.9 23.42481 1.89983 L 23.79521 1.85777 L 23.79521 -3.01443 L 23.42481 -2.97236 Q 22.88 -2.91 22.45479 -2.88555 Q 22.03 -2.86 21.61541 -2.87318 Q 21.2 -2.89 20.85056 -2.95656 Q 20.5 -3.03 20.20237 -3.15949 Q 20.03 -3.24 19.95484 -3.30961 Q 19.88 -3.38 19.89756 -3.41521 Q 19.88 -3.38 19.90099 -3.43808 Q 19.92 -3.49 20.02331 -3.54662 Q 20.13 -3.6 20.26936 -3.63786 Q 20.41 -3.68 20.6205 -3.71523 Q 20.83 -3.75 21.02321 -3.77941 Q 21.22 -3.81 21.45998 -3.83331 L 24.08761 -4.13174 Q 24.99 -4.23 25.72784 -4.17237 Q 26.47 -4.11 26.9353 -3.90205 Q 27.89 -3.48 27.25784 -3.63975 Q 27.89 -3.48 26.03066 -3.26832 L 25.55568 -3.21437 Q 24.67 -3.11 24.3311 -3.08021 L 23.18554 -3.58926 L 22.27044 -3.48533 Q 22.23 -3.48 22.12772 -3.46973 Q 22.03 -3.46 21.97628 -3.45315 Q 21.82 -3.44 21.7149 -3.41977 Q 21.61 -3.4 21.51253 -3.38327 Q 21.41 -3.36 21.39661 -3.33753 Q 21.38 -3.31 21.39251 -3.32616 Q 21.38 -3.31 21.44022 -3.28533 Q 21.5 -3.26 21.63309 -3.24947 Q 21.76 -3.24 21.94637 -3.2537 Q 22.13 -3.27 22.26579 -3.2783 Q 22.4 -3.29 22.59702 -3.31346 Q 22.98 -3.36 23.01094 -3.36293 L 23.79521 -3.01443" />
    <path d="M 23.79521 1.55386 L 24.3311 1.79199 C 24.34 1.79 24.35 1.79 24.36347 1.78875 C 24.37 1.79 24.39 1.79 24.39716 1.78533 C 24.41 1.78 24.42 1.78 24.43204 1.78175 C 24.44 1.78 24.46 1.78 24.468 1.77802 C 24.48 1.78 24.49 1.78 24.50492 1.77415 C 24.52 1.77 24.53 1.77 24.54271 1.77016 C 24.56 1.77 24.57 1.77 24.58129 1.76606 C 24.59 1.76 24.61 1.76 24.62058 1.76186 C 24.63 1.76 24.65 1.76 24.66051 1.75756 C 24.67 1.76 24.69 1.75 24.70102 1.75318 C 24.71 1.75 24.73 1.75 24.74206 1.74872 C 24.76 1.75 24.77 1.75 24.78359 1.74419 C 24.8 1.74 24.81 1.74 24.82556 1.73959 C 24.84 1.74 24.85 1.74 24.86796 1.73493 C 24.88 1.73 24.9 1.73 24.91075 1.73021 C 24.93 1.73 24.94 1.73 24.95392 1.72544 C 24.98 1.72 25 1.72 25.02681 1.71734 C 25.05 1.71 25.08 1.71 25.10053 1.70913 C 25.13 1.71 25.15 1.7 25.17496 1.7008 C 25.2 1.7 25.22 1.7 25.25005 1.69237 C 25.28 1.69 25.3 1.69 25.32572 1.68385 C 25.35 1.68 25.38 1.68 25.40191 1.67525 C 25.43 1.67 25.45 1.67 25.47858 1.66657 C 25.5 1.66 25.53 1.66 25.55568 1.65782 L 26.03066 1.60388 C 26.05 1.6 26.06 1.6 26.07616 1.59863 C 26.09 1.6 26.11 1.6 26.12132 1.59325 C 26.14 1.59 26.15 1.59 26.16612 1.58775 C 26.18 1.59 26.2 1.58 26.21055 1.5821 C 26.23 1.58 26.24 1.58 26.25457 1.57632 C 26.27 1.57 26.28 1.57 26.29817 1.57039 C 26.31 1.57 26.33 1.57 26.34132 1.56432 C 26.36 1.56 26.37 1.56 26.38398 1.55809 C 26.4 1.56 26.41 1.55 26.42614 1.55171 C 26.44 1.55 26.45 1.55 26.46776 1.54517 C 26.48 1.54 26.5 1.54 26.5088 1.53847 C 26.52 1.54 26.54 1.53 26.54923 1.53161 C 26.56 1.53 26.58 1.53 26.58901 1.52457 C 26.6 1.52 26.62 1.52 26.62811 1.51735 C 26.64 1.51 26.65 1.51 26.66648 1.50996 C 26.68 1.51 26.69 1.5 26.70408 1.50239 C 26.72 1.5 26.74 1.49 26.76089 1.49026 C 26.78 1.49 26.8 1.48 26.81555 1.47767 C 26.83 1.47 26.85 1.47 26.86786 1.46463 C 26.88 1.46 26.9 1.46 26.91762 1.45112 C 26.93 1.45 26.95 1.44 26.95896 1.43892 C 26.97 1.43 26.99 1.43 26.99806 1.42637 C 27.01 1.42 27.02 1.42 27.03477 1.41347 C 27.05 1.41 27.06 1.4 27.06898 1.40026 C 27.08 1.4 27.09 1.39 27.10055 1.38673 C 27.11 1.38 27.12 1.38 27.12939 1.3729 C 27.14 1.37 27.15 1.36 27.1554 1.3588 C 27.16 1.35 27.17 1.35 27.17851 1.34446 C 27.22 1.32 27.24 1.29 27.25263 1.2623 C 27.26 1.25 27.26 1.24 27.25784 1.23245 L 27.25784 -3.63975" />
    <path d="M 19.90099 1.43412 C 19.9 1.44 19.9 1.44 19.89841 1.44543 C 19.9 1.45 19.9 1.45 19.89756 1.45698 C 19.9 1.46 19.9 1.47 19.89849 1.4694 C 19.9 1.47 19.9 1.48 19.90128 1.48206 C 19.9 1.49 19.91 1.5 19.91227 1.50807 C 19.92 1.52 19.92 1.53 19.93023 1.53493 C 19.94 1.54 19.95 1.55 19.95484 1.56259 L 19.95484 -3.30961" />
    <path d="M -17.28032 -14.98707 L -16.50046 -14.64053 L -15.17117 -14.7915" />
    <path d="M -11.81486 -12.5795 C -11.81 -12.57 -11.81 -12.57 -11.81284 -12.56449 C -11.81 -12.56 -11.81 -12.55 -11.80685 -12.54877 C -11.8 -12.54 -11.8 -12.54 -11.79906 -12.5363 C -11.8 -12.53 -11.79 -12.53 -11.78794 -12.52361 C -11.78 -12.52 -11.78 -12.52 -11.77355 -12.51072 C -11.77 -12.51 -11.76 -12.5 -11.75598 -12.49765 C -11.75 -12.49 -11.74 -12.49 -11.73527 -12.4844 C -11.73 -12.48 -11.72 -12.48 -11.71152 -12.47098 C -11.7 -12.47 -11.69 -12.46 -11.6848 -12.45741 C -11.68 -12.45 -11.67 -12.45 -11.6552 -12.4437 C -11.64 -12.44 -11.62 -12.43 -11.59616 -12.41831 C -11.58 -12.41 -11.56 -12.4 -11.53506 -12.39378 C -11.51 -12.39 -11.49 -12.38 -11.47181 -12.37018 C -11.45 -12.36 -11.43 -12.35 -11.40635 -12.34761 C -11.38 -12.34 -11.36 -12.33 -11.33859 -12.32615 C -11.32 -12.32 -11.29 -12.31 -11.2685 -12.30593 C -11.24 -12.3 -11.22 -12.29 -11.19602 -12.28703 C -11.18 -12.28 -11.17 -12.28 -11.15887 -12.27812 C -11.15 -12.28 -11.13 -12.27 -11.12113 -12.26959 L -10.84757 -12.30066" />
    <path d="M -10.84757 -12.12858 L -10.03686 -11.76833 L -9.66676 -11.81036" />
    <path d="M -9.66676 -11.60387 L -9.46152 -11.51267" />
    <path d="M -6.44503 -11.52851 L -6.07059 -11.57104" />
    <path d="M -3.80232 -9.05019 C -3.8 -9.05 -3.81 -9.04 -3.80726 -9.03812 C -3.81 -9.03 -3.81 -9.03 -3.80891 -9.02581 C -3.81 -9.02 -3.81 -9.02 -3.80658 -9.01081 C -3.81 -9.01 -3.8 -9 -3.79965 -8.99548 C -3.8 -8.99 -3.79 -8.99 -3.78818 -8.97983 C -3.78 -8.97 -3.78 -8.97 -3.77222 -8.96388 C -3.76 -8.96 -3.75 -8.95 -3.74182 -8.94016 C -3.73 -8.93 -3.72 -8.92 -3.70375 -8.91603 C -3.69 -8.91 -3.67 -8.9 -3.65822 -8.89153 C -3.64 -8.88 -3.62 -8.88 -3.60544 -8.86666 C -3.6 -8.86 -3.59 -8.86 -3.57866 -8.85538 C -3.57 -8.85 -3.56 -8.85 -3.54997 -8.84449 C -3.54 -8.84 -3.53 -8.84 -3.51936 -8.83402 C -3.51 -8.83 -3.5 -8.83 -3.48685 -8.82397 C -3.48 -8.82 -3.46 -8.82 -3.45242 -8.81435 C -3.44 -8.81 -3.43 -8.81 -3.4161 -8.80519 C -3.4 -8.8 -3.39 -8.8 -3.37789 -8.79648 C -3.36 -8.79 -3.35 -8.79 -3.33783 -8.78824 C -3.32 -8.79 -3.31 -8.78 -3.29529 -8.78035 C -3.28 -8.78 -3.27 -8.78 -3.2509 -8.77296 C -3.24 -8.77 -3.22 -8.77 -3.20471 -8.76607 C -3.19 -8.76 -3.17 -8.76 -3.15676 -8.75968 C -3.14 -8.76 -3.12 -8.76 -3.0981 -8.75304 C -3.08 -8.75 -3.06 -8.75 -3.03573 -8.74739" />
    <path d="M -3.03573 -8.65727 L -2.24706 -8.30681 L -2.24706 -13.17901 L -3.03573 -13.52947 L -2.34287 -13.60816 Q -2.87 -13.6 -3.15676 -13.63187 Q -3.45 -13.67 -3.60544 -13.73886 Q -3.72 -13.79 -3.77222 -13.83607 Q -3.82 -13.88 -3.80891 -13.89801 Q -3.82 -13.88 -3.80232 -13.92238 Q -3.78 -13.96 -3.72519 -13.99752 Q -3.67 -14.03 -3.54201 -14.06564 Q -3.41 -14.1 -3.28006 -14.12551 Q -3.15 -14.15 -2.9416 -14.18177 Q -2.74 -14.21 -2.55502 -14.23366 Q -2.37 -14.26 -2.12475 -14.28437 Q -2.12 -14.28 0.8298 -14.61501 Q 1.14 -14.65 1.46647 -14.66397 Q 1.79 -14.68 2.09532 -14.66656 Q 2.4 -14.66 2.66743 -14.61169 Q 2.93 -14.57 3.10105 -14.49316 Q 3.42 -14.35 3.27116 -14.34739 Q 3.42 -14.35 3.1477 -14.23174 L 4.66414 -14.40396 L 5.45282 -14.0535 L -2.24706 -13.17901" />
    <path d="M -1.52001 -8.03601 C -1.52 -8.03 -1.52 -8.03 -1.52496 -8.02394 C -1.53 -8.02 -1.53 -8.02 -1.5266 -8.01163 C -1.53 -8.01 -1.53 -8 -1.52428 -7.99663 C -1.52 -7.99 -1.52 -7.99 -1.51735 -7.9813 C -1.51 -7.98 -1.51 -7.97 -1.50587 -7.96565 C -1.5 -7.96 -1.5 -7.96 -1.48992 -7.9497 C -1.48 -7.94 -1.47 -7.93 -1.45951 -7.92598 C -1.45 -7.92 -1.44 -7.91 -1.42144 -7.90186 C -1.41 -7.89 -1.39 -7.89 -1.37591 -7.87735 C -1.36 -7.87 -1.34 -7.86 -1.32313 -7.85249 C -1.31 -7.85 -1.31 -7.84 -1.29635 -7.8412 C -1.29 -7.84 -1.28 -7.83 -1.26766 -7.83031 C -1.26 -7.83 -1.25 -7.82 -1.23706 -7.81984 C -1.23 -7.82 -1.22 -7.81 -1.20454 -7.80979 C -1.19 -7.81 -1.18 -7.8 -1.17012 -7.80017 C -1.16 -7.8 -1.15 -7.79 -1.13379 -7.79101 C -1.12 -7.79 -1.11 -7.79 -1.09559 -7.7823 C -1.08 -7.78 -1.07 -7.78 -1.05552 -7.77406 C -1.04 -7.77 -1.03 -7.77 -1.01298 -7.76618 C -1 -7.76 -0.98 -7.76 -0.9686 -7.75879 C -0.95 -7.76 -0.94 -7.75 -0.92241 -7.75189 C -0.91 -7.75 -0.89 -7.75 -0.87446 -7.7455 C -0.86 -7.74 -0.84 -7.74 -0.8158 -7.73886 C -0.8 -7.74 -0.77 -7.73 -0.75343 -7.73322" />
    <path d="M -0.75343 -7.64309 L 0.03525 -7.29263 L 1.46279 -7.45476" />
    <path d="M 1.46279 -6.65828 L 2.24265 -6.31174 L 2.73392 -6.36753" />
    <path d="M 2.73392 -6.09344 L 3.57326 -5.72046 L 3.70324 -5.75013" />
    <path d="M 12.23105 -1.87324 L 13.12113 -1.97433" />
    <path d="M 11.42916 -2.22957 L 12.23105 -1.87324 L 12.23105 -6.74544 L 11.42916 -7.10177 L 19.12903 -7.97627 L 19.93093 -7.61993 L 12.23105 -6.74544" />
    <path d="M 15.1611 -0.6235 C 15.16 -0.62 15.16 -0.62 15.15615 -0.61144 C 15.16 -0.61 15.15 -0.6 15.15451 -0.59912 C 15.15 -0.59 15.16 -0.59 15.15683 -0.58413 C 15.16 -0.58 15.16 -0.57 15.16376 -0.56879 C 15.17 -0.56 15.17 -0.56 15.17524 -0.55314 C 15.18 -0.55 15.19 -0.54 15.19119 -0.53719 C 15.2 -0.53 15.21 -0.52 15.22159 -0.51348 C 15.23 -0.51 15.25 -0.5 15.25966 -0.48935 C 15.27 -0.48 15.29 -0.47 15.3052 -0.46484 C 15.32 -0.46 15.34 -0.45 15.35798 -0.43998 C 15.37 -0.44 15.38 -0.43 15.38476 -0.42869 C 15.39 -0.42 15.4 -0.42 15.41345 -0.41781 C 15.42 -0.41 15.43 -0.41 15.44405 -0.40733 C 15.45 -0.4 15.47 -0.4 15.47657 -0.39728 C 15.49 -0.39 15.5 -0.39 15.51099 -0.38767 C 15.52 -0.38 15.53 -0.38 15.54732 -0.3785 C 15.56 -0.38 15.57 -0.37 15.58552 -0.36979 C 15.6 -0.37 15.61 -0.36 15.62559 -0.36155 C 15.64 -0.36 15.65 -0.36 15.66813 -0.35367 C 15.68 -0.35 15.7 -0.35 15.71251 -0.34628 C 15.73 -0.34 15.74 -0.34 15.7587 -0.33938 C 15.77 -0.34 15.79 -0.34 15.80665 -0.33299 C 15.83 -0.33 15.85 -0.33 15.86531 -0.32635 C 15.89 -0.32 15.91 -0.32 15.92768 -0.32071" />
    <path d="M 15.92768 -0.23058 L 16.50069 0.02404" />
    <path d="M 44.86961 0.1821 L 44.86961 19.67089" />
    <path d="M -8.56751 -15.85327 L -8.56751 -15.99003" />
    <path d="M -9.46152 -10.94132 L -9.46152 -15.81352" />
    <path d="M -8.99669 -10.73476 L -8.99669 -15.60696" />
    <path d="M -7.70437 -10.75616 L -7.70437 -15.62836" />
    <path d="M -13.69262 -19.31047 Q -12.83 -19.41 -12.25973 -19.40069 Q -11.77 -19.39 -11.23794 -19.29918 Q -10.97 -19.25 -10.14598 -19.07166 Q -10.14 -19.07 -10.13291 -19.07314 Q -9.99 -19.09 -9.90741 -19.09937 Q -9.82 -19.11 -9.71353 -19.12262 Q -9.61 -19.14 -9.54253 -19.14388 Q -9.48 -19.15 -9.40533 -19.16315 Q -9.33 -19.17 -9.29541 -19.18117 Q -9.26 -19.19 -9.21933 -19.19841 Q -9.18 -19.21 -9.1651 -19.21686 Q -9.15 -19.23 -9.1447 -19.23454 Q -9.14 -19.24 -9.14252 -19.24105 Q -9.14 -19.24 -9.15055 -19.25416 Q -9.16 -19.26 -9.18699 -19.27522 Q -9.35 -19.35 -9.70734 -19.30708 L -10.14746 -19.25709 L -10.9141 -19.59776 Q -10.84 -19.61 -10.70278 -19.62299 Q -9.77 -19.73 -9.11307 -19.67878 Q -8.46 -19.63 -7.93157 -19.39568 Q -7.76 -19.32 -7.69701 -19.23917 Q -7.63 -19.16 -7.65988 -19.1462 Q -7.63 -19.16 -7.6807 -19.07632 Q -7.73 -18.99 -7.97352 -18.92077 Q -8.22 -18.85 -8.64041 -18.79893 L -13.62114 -18.23326 L -14.40541 -18.58176 L -13.72563 -18.65896 Q -14.05 -18.64 -14.43139 -18.68083 Q -14.81 -18.72 -14.97512 -18.79115 Q -15.09 -18.84 -15.143 -18.88885 Q -15.19 -18.93 -15.17117 -18.94369 Q -15.19 -18.93 -15.15588 -18.98818 Q -15.12 -19.04 -14.96687 -19.09261 Q -14.81 -19.14 -14.49511 -19.19905 Q -14.18 -19.26 -13.69262 -19.31047 Z" />
    <path d="M -14.40541 -13.70956 L -14.40541 -18.58176" />
    <path d="M -13.62114 -13.36106 L -13.62114 -18.23326" />
    <path d="M -10.9141 -19.23599 L -10.9141 -19.59776" />
    <path d="M -10.14746 -19.07198 L -10.14746 -19.25709" />
    <path d="M -13.25985 -13.20051 L -13.25985 -18.07271 L -6.7191 -18.81556 L -5.93042 -18.4651 L -12.47118 -17.72225 L -13.25985 -18.07271" />
    <path d="M -12.47118 -12.85006 L -12.47118 -17.72225" />
    <path d="M -5.93042 -18.30532 L -5.93042 -18.4651" />
    <path d="M -4.59204 -15.26648 Q -3.72 -15.36 -3.15914 -15.3567 Q -2.67 -15.35 -2.13735 -15.25519 Q -1.87 -15.21 -1.04539 -15.02767 Q -1.04 -15.03 -1.03232 -15.02916 Q -0.89 -15.04 -0.80683 -15.05538 Q -0.72 -15.07 -0.61294 -15.07863 Q -0.51 -15.09 -0.44194 -15.0999 Q -0.38 -15.11 -0.30475 -15.11917 Q -0.23 -15.13 -0.19482 -15.13718 Q -0.16 -15.14 -0.11874 -15.15443 Q -0.08 -15.16 -0.06451 -15.17288 Q -0.05 -15.18 -0.04411 -15.19056 Q -0.04 -15.2 -0.04193 -15.19706 Q -0.04 -15.2 -0.04996 -15.21017 Q -0.06 -15.22 -0.0864 -15.23123 Q -0.25 -15.3 -0.60675 -15.26309 L -1.04687 -15.21311 L -1.81351 -15.55378 Q -1.74 -15.56 -1.60219 -15.579 Q -0.67 -15.68 -0.01248 -15.6348 Q 0.64 -15.58 1.16902 -15.35169 Q 1.34 -15.28 1.40358 -15.19519 Q 1.47 -15.11 1.44071 -15.10221 Q 1.47 -15.11 1.41989 -15.03234 Q 1.37 -14.95 1.12707 -14.87678 Q 0.88 -14.8 0.46018 -14.75495 L -4.52055 -14.18927 L -5.30482 -14.53777 L -4.62504 -14.61498 Q -4.95 -14.6 -5.3308 -14.63684 Q -5.71 -14.67 -5.87453 -14.74717 Q -5.99 -14.8 -6.04242 -14.84487 Q -6.09 -14.89 -6.07059 -14.8997 Q -6.09 -14.89 -6.05529 -14.94419 Q -6.02 -15 -5.86628 -15.04863 Q -5.71 -15.1 -5.39452 -15.15506 Q -5.08 -15.21 -4.59204 -15.26648 Z" />
    <path d="M -5.30482 -9.66557 L -5.30482 -14.53777" />
    <path d="M -4.52055 -9.31707 L -4.52055 -14.18927" />
    <path d="M -1.81351 -15.192 L -1.81351 -15.55378" />
    <path d="M -1.04687 -15.028 L -1.04687 -15.21311" />
    <path d="M 3.70324 -5.6627 L 3.70324 -10.5349 L 10.24399 -11.27775 L 11.03267 -10.92729 L 10.28316 -10.84217 Q 10.75 -10.87 11.08584 -10.83316 Q 11.42 -10.8 11.60463 -10.71447 Q 11.92 -10.58 11.78861 -10.55723 Q 11.92 -10.58 11.70143 -10.45628 Q 11.49 -10.34 10.68582 -10.24506 L 5.64408 -9.67246 L 4.86642 -10.01802 L 9.74693 -10.57232 Q 9.95 -10.6 10.06676 -10.63199 Q 10.18 -10.67 10.1305 -10.6738 Q 10.18 -10.67 10.08925 -10.70952 Q 10.03 -10.73 9.92913 -10.74542 Q 9.83 -10.76 9.72695 -10.75503 Q 9.63 -10.75 9.48587 -10.74424 Q 9.34 -10.73 9.2733 -10.72686 Q 9.2 -10.72 9.08918 -10.70657 L 4.49192 -10.18444 L 3.70324 -10.5349" />
    <path d="M 4.49192 -5.31224 L 4.49192 -10.18444" />
    <path d="M 4.86642 -5.14582 L 4.86642 -10.01802" />
    <path d="M 5.64408 -4.80026 L 5.64408 -9.67246" />
    <path d="M 11.03267 -10.83837 L 11.03267 -10.92729" />
    <path d="M 6.86321 -9.08696 Q 5.88 -9.53 6.54088 -9.35129 Q 5.88 -9.53 7.91127 -9.75664 L 10.53454 -10.05457 Q 11.47 -10.16 12.28484 -10.10586 Q 13.1 -10.05 13.55648 -9.84713 Q 14.02 -9.64 13.84099 -9.60374 Q 14.02 -9.64 13.73221 -9.4627 Q 13.45 -9.28 12.51063 -9.17647 L 9.88736 -8.87853 Q 8.86 -8.76 8.1056 -8.81691 Q 7.35 -8.87 6.86321 -9.08696 Z" />
    <path d="M 16.58648 -8.25106 L 16.58648 -8.45694 L 12.77561 -7.92088 L 16.97421 -8.28465 L 17.76068 -7.93517 L 10.74843 -7.40426 L 9.85401 -7.80171 L 13.66248 -8.34856 L 9.45307 -7.97988 L 8.55865 -8.37732 L 14.6192 -9.33113 L 15.40567 -8.98165 L 11.60582 -8.4407 L 15.7934 -8.80936 L 16.58648 -8.45694" />
    <path d="M 15.40567 -8.77522 L 15.40567 -8.98165" />
    <path d="M 8.55865 -3.50513 L 8.55865 -8.37732" />
    <path d="M 9.45307 -3.10768 L 9.45307 -7.97988" />
    <path d="M 9.85401 -2.92951 L 9.85401 -7.80171" />
    <path d="M 10.74843 -2.53206 L 10.74843 -7.40426" />
    <path d="M 17.76068 -7.82086 L 17.76068 -7.93517" />
    <path d="M 17.01878 -5.87784 L 17.01878 -6.02564" />
    <path d="M 16.40911 -6.29656 L 16.40911 -6.60047" />
    <path d="M 17.55467 -5.93781 L 17.55467 -6.09142" />
    <path d="M 25.54828 -4.18484 L 25.54828 -4.47463" />
    <path d="M 17.73979 -4.47021 L 17.73979 -4.56742" />
    <path d="M 23.18554 -3.28535 L 23.18554 -3.58926" />
    <path d="M 24.3311 1.79199 L 24.3311 -3.08021" />
    <path d="M -17.28032 -14.98707 L -17.28032 -19.85927 L -10.33867 -20.64765 L -8.78776 -19.95848 L -10.14297 -19.80457 L -10.91402 -20.1472 L -12.01214 -20.02248 L -11.28074 -19.69747 L -12.61852 -19.54554 L -13.34992 -19.87054 L -16.50046 -19.51273 L -17.28032 -19.85927" />
    <path d="M -16.50046 -14.64053 L -16.50046 -19.51273" />
    <path d="M -13.34992 -19.34634 L -13.34992 -19.87054" />
    <path d="M -12.61852 -19.39632 L -12.61852 -19.54554" />
    <path d="M -11.28074 -19.30659 L -11.28074 -19.69747" />
    <path d="M -10.91402 -19.59777 L -10.91402 -20.1472" />
    <path d="M -10.14297 -19.67421 L -10.14297 -19.80457" />
    <path d="M -8.78776 -19.64152 L -8.78776 -19.95848" />
    <path d="M -5.77997 -18.2548 L -4.38989 -18.41268 L -3.62325 -18.07201 L -5.01332 -17.91413 L -4.87233 -17.85148 L -6.06196 -17.71637 L -6.20295 -17.77902 L -9.88076 -17.36132 Q -9.96 -17.35 -10.00929 -17.3455 Q -10.06 -17.34 -10.10288 -17.32995 Q -10.15 -17.32 -10.15598 -17.30979 Q -10.16 -17.3 -10.15679 -17.30633 Q -10.16 -17.3 -10.13258 -17.28602 Q -10.1 -17.27 -10.05787 -17.26254 L -11.12113 -17.14179 Q -11.4 -17.2 -11.6552 -17.3159 Q -11.78 -17.37 -11.80685 -17.42097 Q -11.83 -17.47 -11.81486 -17.4517 Q -11.83 -17.47 -11.78336 -17.50292 Q -11.74 -17.54 -11.61103 -17.56735 Q -11.49 -17.6 -11.3587 -17.61691 Q -11.23 -17.64 -11.05702 -17.65547 L -6.96959 -18.11969 L -7.09076 -18.17353 L -5.90113 -18.30864 L -5.77997 -18.2548 Z" />
    <path d="M -7.09076 -18.10593 L -7.09076 -18.17353" />
    <path d="M -11.12113 -12.26959 L -11.12113 -17.14179" />
    <path d="M -10.05787 -17.09046 L -10.05787 -17.26254" />
    <path d="M -6.20295 -17.52828 L -6.20295 -17.77902" />
    <path d="M -6.06196 -17.54429 L -6.06196 -17.71637" />
    <path d="M -4.87233 -17.6794 L -4.87233 -17.85148" />
    <path d="M -3.62325 -17.82126 L -3.62325 -18.07201" />
    <path d="M -10.84757 -12.12858 L -10.84757 -17.00078 L -3.14769 -17.87527 L -2.33699 -17.51502 L -4.14975 -17.30914 Q -3.29 -17.34 -2.93522 -17.1779 Q -2.62 -17.04 -2.75012 -17.01777 Q -2.62 -17.04 -2.83826 -16.91236 Q -3.05 -16.79 -3.84286 -16.69624 L -8.87588 -16.12463 L -9.66676 -16.47607 L -5.161 -16.9878 Q -5.13 -16.99 -5.0575 -16.99894 Q -4.98 -17.01 -4.93656 -17.01206 Q -4.25 -17.09 -4.40067 -17.13919 Q -4.25 -17.09 -4.44413 -17.17738 Q -4.5 -17.2 -4.67201 -17.21664 Q -4.84 -17.23 -5.09099 -17.20224 L -10.03686 -16.64053 L -10.84757 -17.00078" />
    <path d="M -10.03686 -11.76833 L -10.03686 -16.64053" />
    <path d="M -9.66676 -11.60387 L -9.66676 -16.47607" />
    <path d="M -8.87588 -15.83955 L -8.87588 -16.12463" />
    <path d="M -2.33699 -15.28756 L -2.33699 -17.51502" />
    <path d="M -3.03573 -8.65727 L -3.03573 -13.52947" />
    <path d="M 5.45282 -13.44438 L 5.45282 -14.0535" />
    <path d="M 0.15756 -13.27019 Q 0.16 -13.27 3.11211 -13.60083 Q 3.43 -13.64 3.74878 -13.64979 Q 4.07 -13.66 4.37762 -13.65238 Q 4.68 -13.64 4.94974 -13.59751 Q 5.22 -13.55 5.38336 -13.47898 Q 5.7 -13.34 5.55347 -13.33321 Q 5.7 -13.34 5.43 -13.21756 L 6.94645 -13.38979 L 7.73512 -13.03933 L 0.03525 -12.16483 L -0.75343 -12.51529 L -0.06057 -12.59398 Q -0.58 -12.58 -0.87446 -12.6177 Q -1.16 -12.65 -1.32313 -12.72468 Q -1.44 -12.78 -1.48992 -12.82189 Q -1.54 -12.87 -1.5266 -12.88383 Q -1.54 -12.87 -1.52001 -12.9082 Q -1.5 -12.95 -1.44288 -12.98334 Q -1.39 -13.02 -1.2597 -13.05146 Q -1.13 -13.08 -0.99775 -13.11133 Q -0.86 -13.14 -0.6593 -13.16759 Q -0.45 -13.2 -0.27272 -13.21948 Q -0.09 -13.24 0.15756 -13.27019 Z" />
    <path d="M -0.75343 -7.64309 L -0.75343 -12.51529" />
    <path d="M 0.03525 -7.29263 L 0.03525 -12.16483" />
    <path d="M 7.73512 -12.24285 L 7.73512 -13.03933" />
    <path d="M -6.3182 -18.63742 L -6.3182 -18.8611 L -5.55126 -18.9482 L -4.76259 -18.59774 L -5.52953 -18.51064 L -6.3182 -18.8611" />
    <path d="M -5.52953 -18.28325 L -5.52953 -18.51064" />
    <path d="M -4.76259 -18.37035 L -4.76259 -18.59774" />
    <path d="M 1.46279 -6.65828 L 1.46279 -11.53048 L 9.17138 -12.40597 L 9.95124 -12.05942 L 6.52617 -11.67043 L 9.15796 -11.75792 L 9.97528 -11.39473 L 6.63845 -11.29231 L 3.57326 -10.59266 L 2.73392 -10.96563 L 5.32347 -11.53383 L 2.24265 -11.18394 L 1.46279 -11.53048" />
    <path d="M 2.24265 -6.31174 L 2.24265 -11.18394" />
    <path d="M 2.73392 -6.09344 L 2.73392 -10.96563" />
    <path d="M 3.57326 -5.72046 L 3.57326 -10.59266" />
    <path d="M 6.63845 -10.86826 L 6.63845 -11.29231" />
    <path d="M 9.97528 -11.24723 L 9.97528 -11.39473" />
    <path d="M 9.95124 -11.40541 L 9.95124 -12.05942" />
    <path d="M 19.93093 -7.00071 L 19.93093 -7.61993" />
    <path d="M 11.42916 -2.22957 L 11.42916 -7.10177" />
    <path d="M 16.83867 -5.85769 Q 16.84 -5.86 19.79322 -6.18833 Q 20.11 -6.22 20.42988 -6.23728 Q 20.75 -6.25 21.05873 -6.23987 Q 21.36 -6.23 21.63085 -6.18501 Q 21.9 -6.14 22.06446 -6.06648 Q 22.38 -5.93 22.23457 -5.9207 Q 22.38 -5.93 22.11111 -5.80505 L 23.62756 -5.97728 L 24.41623 -5.62682 L 16.71636 -4.75232 L 15.92768 -5.10278 L 16.62054 -5.18147 Q 16.1 -5.17 15.80665 -5.20519 Q 15.52 -5.24 15.35798 -5.31218 Q 15.24 -5.36 15.19119 -5.40939 Q 15.14 -5.46 15.15451 -5.47132 Q 15.14 -5.46 15.1611 -5.4957 Q 15.18 -5.54 15.23823 -5.57083 Q 15.29 -5.61 15.42141 -5.63896 Q 15.55 -5.67 15.68336 -5.69882 Q 15.82 -5.73 16.02181 -5.75508 Q 16.23 -5.78 16.40839 -5.80698 Q 16.59 -5.83 16.83867 -5.85769 Z" />
    <path d="M 15.92768 -0.23058 L 15.92768 -5.10278" />
    <path d="M 16.71636 -4.58143 L 16.71636 -4.75232" />
    <path d="M 24.41623 -5.00928 L 24.41623 -5.62682" />
    <path d="M -12.27847 -19.02244 Q -12.28 -19.02 -13.04105 -18.93583 Q -13.62 -18.87 -13.48546 -18.82754 Q -13.62 -18.87 -13.44437 -18.7917 Q -13.4 -18.77 -13.30836 -18.76044 Q -13.22 -18.75 -13.1204 -18.75228 Q -13.02 -18.75 -12.93494 -18.75983 Q -12.85 -18.77 -12.7671 -18.7752 L -11.04585 -18.97069 Q -11.41 -19.04 -11.69595 -19.04927 Q -11.98 -19.06 -12.27847 -19.02244 Z" />
    <path d="M -3.17788 -14.97846 Q -3.18 -14.98 -3.94046 -14.89185 Q -4.52 -14.83 -4.38487 -14.78355 Q -4.52 -14.83 -4.34378 -14.74771 Q -4.3 -14.73 -4.20777 -14.71645 Q -4.12 -14.71 -4.01981 -14.7083 Q -3.92 -14.71 -3.83435 -14.71584 Q -3.75 -14.72 -3.66651 -14.73121 L -1.94526 -14.9267 Q -2.31 -15 -2.59536 -15.00528 Q -2.88 -15.01 -3.17788 -14.97846 Z" />
    <path d="M 11.58482 -9.72645 L 8.3907 -9.36368 Q 8.13 -9.33 8.06118 -9.29737 Q 7.99 -9.26 8.03021 -9.26413 Q 7.99 -9.26 8.07463 -9.22454 Q 8.16 -9.19 8.32774 -9.17892 Q 8.5 -9.17 8.7608 -9.19922 L 11.95492 -9.56199 Q 12.53 -9.63 12.38602 -9.66983 Q 12.53 -9.63 12.34071 -9.70905 Q 12.16 -9.79 11.58482 -9.72645 Z" />
    <path d="M 18.97787 -6.78404 Q 18.92 -6.81 18.81114 -6.82288 Q 18.71 -6.83 18.5599 -6.82876 Q 18.41 -6.82 18.27419 -6.81106 Q 18.13 -6.8 17.94294 -6.77713 Q 17.85 -6.77 17.67061 -6.74497 Q 17.49 -6.72 17.39829 -6.71281 L 17.76839 -6.54835 L 18.44817 -6.62555 Q 19.15 -6.71 19.01307 -6.75268 Q 19.15 -6.71 18.97787 -6.78404 Z" />
    <path d="M 23.43042 -4.7909 Q 23.37 -4.82 23.28009 -4.82852 Q 23.19 -4.84 23.07253 -4.83444 Q 22.96 -4.83 22.88713 -4.82322 Q 22.82 -4.82 22.70517 -4.8044 L 20.37821 -4.54012 Q 20.26 -4.53 20.17563 -4.51465 Q 20.1 -4.5 19.99065 -4.48258 Q 19.89 -4.46 19.86053 -4.43708 Q 19.83 -4.41 19.85296 -4.42214 Q 19.83 -4.41 19.8965 -4.38462 Q 20.08 -4.3 20.74391 -4.37762 L 23.07087 -4.6419 Q 23.26 -4.66 23.38949 -4.70697 Q 23.52 -4.75 23.46724 -4.75756 Q 23.52 -4.75 23.43042 -4.7909 Z" />
    <path d="M 25.75429 -3.77283 Q 25.69 -3.8 25.58756 -3.81167 Q 25.48 -3.82 25.33632 -3.81755 Q 25.19 -3.81 25.05061 -3.79985 Q 24.91 -3.79 24.71936 -3.76592 Q 24.63 -3.76 24.44704 -3.73376 Q 24.27 -3.71 24.17471 -3.7016 L 24.54481 -3.53714 L 25.2246 -3.61434 Q 25.93 -3.69 25.7895 -3.74147 Q 25.93 -3.69 25.75429 -3.77283 Z" />
    <path d="M 1.30463 -14.23383 L -1.1487 -13.95519" />
    <path d="M -1.44501 -13.92154 Q -1.43 -13.92 -1.41015 -13.9255 Q -1.38 -13.93 -1.262 -13.94233 Q -1.17 -13.95 -1.1487 -13.95519" />
    <path d="M -1.44501 -13.92154 Q -2.26 -13.83 -2.11037 -13.77625 Q -2.26 -13.83 -2.07478 -13.74431 Q -2.04 -13.73 -1.98585 -13.71938 Q -1.93 -13.71 -1.85787 -13.70749 Q -1.78 -13.7 -1.71697 -13.70444 Q -1.65 -13.7 -1.55003 -13.71049 Q -1.45 -13.72 -1.38102 -13.7217 Q -1.31 -13.73 -1.20446 -13.73806 Q -1.1 -13.75 -1.04539 -13.7549 Q -0.99 -13.76 -0.89287 -13.77222 Q -0.79 -13.78 -0.76978 -13.78682 L 1.68354 -14.06545 Q 1.78 -14.08 1.87413 -14.09017 Q 1.96 -14.1 2.0667 -14.12494 Q 2.17 -14.15 2.20333 -14.17242 Q 2.24 -14.2 2.21595 -14.19156 Q 2.24 -14.2 2.17828 -14.22488 Q 2.12 -14.25 2.01373 -14.26397 Q 1.91 -14.28 1.78212 -14.27085 Q 1.65 -14.27 1.54655 -14.25761 Q 1.44 -14.25 1.30463 -14.23383" />
    <path d="M 3.58694 -13.21965 L 1.13361 -12.94102" />
    <path d="M 0.83729 -12.90736 Q 0.85 -12.91 0.87215 -12.91132 Q 0.9 -12.91 1.02031 -12.92815 Q 1.11 -12.94 1.13361 -12.94102" />
    <path d="M 0.83729 -12.90736 Q 0.02 -12.81 0.17194 -12.76207 Q 0.02 -12.81 0.20752 -12.73013 Q 0.24 -12.71 0.29645 -12.7052 Q 0.35 -12.7 0.42443 -12.69331 Q 0.5 -12.69 0.56534 -12.69026 Q 0.63 -12.69 0.73227 -12.69632 Q 0.83 -12.7 0.90129 -12.70752 Q 0.97 -12.71 1.07784 -12.72389 Q 1.19 -12.74 1.23692 -12.74072 Q 1.29 -12.75 1.38943 -12.75805 Q 1.49 -12.77 1.51252 -12.77264 L 3.96585 -13.05127 Q 4.07 -13.06 4.15644 -13.07599 Q 4.25 -13.09 4.34901 -13.11077 Q 4.45 -13.13 4.48564 -13.15824 Q 4.52 -13.18 4.49826 -13.17738 Q 4.52 -13.18 4.46059 -13.21071 Q 4.4 -13.24 4.29604 -13.24979 Q 4.19 -13.26 4.06443 -13.25667 Q 3.94 -13.25 3.82886 -13.24344 Q 3.72 -13.23 3.58694 -13.21965" />
    <path d="M 20.26805 -5.80714 L 17.81472 -5.52851" />
    <path d="M 17.5184 -5.49486 Q 17.54 -5.5 17.55326 -5.49881 Q 17.58 -5.5 17.70142 -5.51564 Q 17.79 -5.53 17.81472 -5.52851" />
    <path d="M 17.5184 -5.49486 Q 16.7 -5.4 16.85305 -5.34956 Q 16.7 -5.4 16.88863 -5.31762 Q 16.92 -5.3 16.97756 -5.29269 Q 17.03 -5.28 17.10554 -5.2808 Q 17.18 -5.28 17.24645 -5.27775 Q 17.31 -5.28 17.41338 -5.28381 Q 17.51 -5.29 17.5824 -5.29501 Q 17.65 -5.3 17.75895 -5.31138 Q 17.87 -5.32 17.91803 -5.32822 Q 17.97 -5.33 18.07054 -5.34554 Q 18.17 -5.36 18.19363 -5.36013 L 20.64696 -5.63876 Q 20.75 -5.65 20.83755 -5.66348 Q 20.93 -5.68 21.03011 -5.69826 Q 21.13 -5.72 21.16675 -5.74573 Q 21.2 -5.77 21.17937 -5.76487 Q 21.2 -5.77 21.14169 -5.7982 Q 21.08 -5.83 20.97715 -5.83728 Q 20.87 -5.85 20.74554 -5.84416 Q 20.62 -5.84 20.50996 -5.83093 Q 20.4 -5.82 20.26805 -5.80714" />
    <path d="M -12.27847 -18.8307 L -12.27847 -19.02244" />
    <path d="M -3.17788 -14.78671 L -3.17788 -14.97846" />
    <path d="M 1.30463 -14.02241 L 1.30463 -14.23383" />
    <path d="M -1.44501 -13.71737 L -1.44501 -13.92154" />
    <path d="M 3.58694 -13.00824 L 3.58694 -13.21965" />
    <path d="M 0.83729 -12.70319 L 0.83729 -12.90736" />
    <path d="M 20.26805 -5.59573 L 20.26805 -5.80714" />
    <path d="M 17.5184 -5.29069 L 17.5184 -5.49486" />
    <path d="M -16.91078 -22.56478 L -16.91078 -22.82167 L -15.573 -22.97361 L -13.87669 -22.21983 L -15.21447 -22.06789 L -15.6749 -22.27249 L -21.27877 -21.63604 L -22.05422 -21.98063 L -16.45035 -22.61707 L -16.91078 -22.82167" />
    <path d="M -13.87669 -21.87966 L -13.87669 -22.21983" />
    <path d="M -15.21447 -21.9353 L -15.21447 -22.06789" />
    <path d="M -15.6749 -21.90848 L -15.6749 -22.27249" />
    <path d="M -21.27877 -14.92637 L -21.27877 -21.63604" />
    <path d="M -22.05422 -14.81931 L -22.05422 -21.98063" />
    <path d="M -19.72919 -20.9037 Q -20.72 -21.34 -20.05152 -21.16803 Q -20.72 -21.34 -18.68113 -21.57338 L -16.05786 -21.87132 Q -15.12 -21.98 -14.30756 -21.92261 Q -13.49 -21.87 -13.03592 -21.66387 Q -12.58 -21.46 -12.75141 -21.42048 Q -12.58 -21.46 -12.86019 -21.27944 Q -13.14 -21.1 -14.08177 -20.99321 L -16.70504 -20.69528 Q -17.73 -20.58 -18.4868 -20.63365 Q -19.24 -20.69 -19.72919 -20.9037 Z" />
    <path d="M -15.00759 -21.54319 L -18.2017 -21.18043 Q -18.46 -21.15 -18.53122 -21.11412 Q -18.6 -21.08 -18.5622 -21.08088 Q -18.6 -21.08 -18.51778 -21.04128 Q -18.44 -21.01 -18.26466 -20.99567 Q -18.09 -20.99 -17.8316 -21.01597 L -14.63748 -21.37873 Q -14.07 -21.44 -14.20639 -21.48657 Q -14.07 -21.44 -14.25169 -21.52579 Q -14.44 -21.61 -15.00759 -21.54319 Z" />
    <path d="M -15.143 -14.01666 L -15.143 -18.88885" />
    <path d="M -14.97512 -13.91896 L -14.97512 -18.79115" />
    <path d="M -14.43139 -13.80863 L -14.43139 -18.68083" />
    <path d="M -8.64041 -18.59735 L -8.64041 -18.79893" />
    <path d="M -7.97352 -18.6731 L -7.97352 -18.92077" />
    <path d="M -7.6807 -18.70635 L -7.6807 -19.07632" />
    <path d="M -9.70734 -19.12336 L -9.70734 -19.30708" />
    <path d="M -9.18699 -19.20763 L -9.18699 -19.27522" />
    <path d="M -9.15055 -19.22769 L -9.15055 -19.25416" />
    <path d="M -6.04242 -9.97267 L -6.04242 -14.84487" />
    <path d="M -5.87453 -9.87497 L -5.87453 -14.74717" />
    <path d="M -5.3308 -9.76464 L -5.3308 -14.63684" />
    <path d="M 0.46018 -14.57365 L 0.46018 -14.75495" />
    <path d="M 1.12707 -14.64361 L 1.12707 -14.87678" />
    <path d="M 1.41989 -14.66193 L 1.41989 -15.03234" />
    <path d="M -0.60675 -15.07937 L -0.60675 -15.26309" />
    <path d="M -0.0864 -15.16364 L -0.0864 -15.23123" />
    <path d="M -0.04996 -15.1837 L -0.04996 -15.21017" />
    <path d="M 9.08918 -10.49761 L 9.08918 -10.70657" />
    <path d="M 9.2733 -10.51852 L 9.2733 -10.72686" />
    <path d="M 9.48587 -10.54266 L 9.48587 -10.74424" />
    <path d="M 9.72695 -10.57005 L 9.72695 -10.75503" />
    <path d="M 9.92913 -10.59883 L 9.92913 -10.74542" />
    <path d="M 10.08925 -10.63994 L 10.08925 -10.70952" />
    <path d="M 10.68582 -10.07078 L 10.68582 -10.24506" />
    <path d="M 11.70143 -10.12466 L 11.70143 -10.45628" />
    <path d="M 6.86321 -4.21476 L 6.86321 -9.08696" />
    <path d="M 8.1056 -3.94471 L 8.1056 -8.81691" />
    <path d="M 9.88736 -8.58644 L 9.88736 -8.87853" />
    <path d="M 12.51063 -8.99929 L 12.51063 -9.17647" />
    <path d="M 13.73221 -9.19154 L 13.73221 -9.4627" />
    <path d="M 13.42595 -1.29851 L 13.42595 -6.1707" />
    <path d="M 14.07414 -1.09557 L 14.07414 -5.96776" />
    <path d="M 14.83898 -1.0122 L 14.83898 -5.88439" />
    <path d="M 15.67836 -5.69781 L 15.67836 -5.89676" />
    <path d="M 16.64839 -5.83577 L 16.64839 -5.98357" />
    <path d="M 14.62018 -6.32573 L 14.62018 -6.34874" />
    <path d="M 14.73611 -6.27489 L 14.73611 -6.39448" />
    <path d="M 14.93847 -6.25792 L 14.93847 -6.43098" />
    <path d="M 15.19985 -6.26684 L 15.19985 -6.46436" />
    <path d="M 15.35129 -6.27764 L 15.35129 -6.48094" />
    <path d="M 15.49402 -6.28996 L 15.49402 -6.49654" />
    <path d="M 18.77925 -6.07486 L 18.77925 -6.22558" />
    <path d="M 19.25423 -6.12801 L 19.25423 -6.27953" />
    <path d="M 16.97815 0.77109 L 16.97815 -4.10111" />
    <path d="M 17.53772 0.96504 L 17.53772 -3.90716" />
    <path d="M 18.19937 1.07549 L 18.19937 -3.79671" />
    <path d="M 19.04707 1.09721 L 19.04707 -3.77498" />
    <path d="M 20.11871 -3.58833 L 20.11871 -3.85798" />
    <path d="M 24.33257 -4.78519 L 24.33257 -4.83128" />
    <path d="M 24.45644 -4.79926 L 24.45644 -4.91726" />
    <path d="M 18.23049 -4.20109 L 18.23049 -4.53724" />
    <path d="M 18.40052 -4.18021 L 18.40052 -4.39294" />
    <path d="M 20.20237 1.7127 L 20.20237 -3.15949" />
    <path d="M 20.85056 1.91564 L 20.85056 -2.95656" />
    <path d="M 21.61541 1.99901 L 21.61541 -2.87318" />
    <path d="M 22.45479 1.98665 L 22.45479 -2.88555" />
    <path d="M 23.42481 1.89983 L 23.42481 -2.97236" />
    <path d="M 21.39661 -3.31452 L 21.39661 -3.33753" />
    <path d="M 21.51253 -3.26369 L 21.51253 -3.38327" />
    <path d="M 21.7149 -3.24671 L 21.7149 -3.41977" />
    <path d="M 21.97628 -3.25563 L 21.97628 -3.45315" />
    <path d="M 22.12772 -3.26643 L 22.12772 -3.46973" />
    <path d="M 22.27044 -3.27875 L 22.27044 -3.48533" />
    <path d="M 25.55568 1.65782 L 25.55568 -3.21437" />
    <path d="M 26.03066 1.60388 L 26.03066 -3.26832" />
    <path d="M -11.80685 -12.54877 L -11.80685 -17.42097" />
    <path d="M -11.6552 -12.4437 L -11.6552 -17.3159" />
    <path d="M -10.15598 -17.30279 L -10.15598 -17.30979" />
    <path d="M -10.10288 -17.27483 L -10.10288 -17.32995" />
    <path d="M -10.00929 -17.09598 L -10.00929 -17.3455" />
    <path d="M -9.88076 -17.11058 L -9.88076 -17.36132" />
    <path d="M -5.09099 -16.99539 L -5.09099 -17.20224" />
    <path d="M -4.67201 -17.04762 L -4.67201 -17.21664" />
    <path d="M -4.44413 -17.10189 L -4.44413 -17.17738" />
    <path d="M -3.84286 -15.33552 L -3.84286 -16.69624" />
    <path d="M -2.83826 -15.3428 L -2.83826 -16.91236" />
    <path d="M -3.77222 -8.96388 L -3.77222 -13.83607" />
    <path d="M -3.60544 -8.86666 L -3.60544 -13.73886" />
    <path d="M -3.15676 -8.75968 L -3.15676 -13.63187" />
    <path d="M -1.48992 -7.9497 L -1.48992 -12.82189" />
    <path d="M -1.32313 -7.85249 L -1.32313 -12.72468" />
    <path d="M -0.87446 -7.7455 L -0.87446 -12.6177" />
    <path d="M 15.19119 -0.53719 L 15.19119 -5.40939" />
    <path d="M 15.35798 -0.43998 L 15.35798 -5.31218" />
    <path d="M 15.80665 -0.33299 L 15.80665 -5.20519" />
    <path d="M -13.04105 -18.7543 L -13.04105 -18.93583" />
    <path d="M -11.69595 -18.89685 L -11.69595 -19.04927" />
    <path d="M -3.94046 -14.71031 L -3.94046 -14.89185" />
    <path d="M -2.59536 -14.85287 L -2.59536 -15.00528" />
    <path d="M 8.3907 -9.17683 L 8.3907 -9.36368" />
    <path d="M 11.58482 -9.51995 L 11.58482 -9.72645" />
    <path d="M 8.06118 -9.23105 L 8.06118 -9.29737" />
    <path d="M 12.34071 -9.6327 L 12.34071 -9.70905" />
    <path d="M 18.81114 -6.67696 L 18.81114 -6.82288" />
    <path d="M 18.97787 -6.72116 L 18.97787 -6.78404" />
    <path d="M 18.5599 -6.63893 L 18.5599 -6.82876" />
    <path d="M 18.27419 -6.60579 L 18.27419 -6.81106" />
    <path d="M 17.94294 -6.56817 L 17.94294 -6.77713" />
    <path d="M 17.67061 -6.5918 L 17.67061 -6.74497" />
    <path d="M 23.28009 -4.67658 L 23.28009 -4.82852" />
    <path d="M 23.43042 -4.72302 L 23.43042 -4.7909" />
    <path d="M 23.07253 -4.64208 L 23.07253 -4.83444" />
    <path d="M 22.88713 -4.62103 L 22.88713 -4.82322" />
    <path d="M 22.70517 -4.60036 L 22.70517 -4.8044" />
    <path d="M 20.37821 -4.34606 L 20.37821 -4.54012" />
    <path d="M 20.17563 -4.34211 L 20.17563 -4.51465" />
    <path d="M 19.99065 -4.35784 L 19.99065 -4.48258" />
    <path d="M 19.86053 -4.40679 L 19.86053 -4.43708" />
    <path d="M 25.58756 -3.66575 L 25.58756 -3.81167" />
    <path d="M 25.75429 -3.70995 L 25.75429 -3.77283" />
    <path d="M 25.33632 -3.62772 L 25.33632 -3.81755" />
    <path d="M 25.05061 -3.59458 L 25.05061 -3.79985" />
    <path d="M 24.71936 -3.55696 L 24.71936 -3.76592" />
    <path d="M 24.44704 -3.58059 L 24.44704 -3.73376" />
    <path d="M 2.17828 -14.15799 L 2.17828 -14.22488" />
    <path d="M 2.01373 -14.11422 L 2.01373 -14.26397" />
    <path d="M 1.78212 -14.07743 L 1.78212 -14.27085" />
    <path d="M 1.54655 -14.04989 L 1.54655 -14.25761" />
    <path d="M 4.46059 -13.14381 L 4.46059 -13.21071" />
    <path d="M 4.29604 -13.10004 L 4.29604 -13.24979" />
    <path d="M 4.06443 -13.06325 L 4.06443 -13.25667" />
    <path d="M 3.82886 -13.03571 L 3.82886 -13.24344" />
    <path d="M 21.14169 -5.7313 L 21.14169 -5.7982" />
    <path d="M 20.97715 -5.68754 L 20.97715 -5.83728" />
    <path d="M 20.74554 -5.65074 L 20.74554 -5.84416" />
    <path d="M 20.50996 -5.6232 L 20.50996 -5.83093" />
    <path d="M -19.72919 -15.12757 L -19.72919 -20.9037" />
    <path d="M -12.86019 -20.36128 L -12.86019 -21.27944" />
    <path d="M -14.08177 -20.22254 L -14.08177 -20.99321" />
    <path d="M -16.70504 -19.92461 L -16.70504 -20.69528" />
    <path d="M -18.4868 -15.27718 L -18.4868 -20.63365" />
    <path d="M -15.00759 -21.3367 L -15.00759 -21.54319" />
    <path d="M -18.2017 -20.99357 L -18.2017 -21.18043" />
    <path d="M -18.53122 -21.0478 L -18.53122 -21.11412" />
    <path d="M -14.25169 -21.44944 L -14.25169 -21.52579" />
    <path d="M -15.17117 -14.07149 L -15.17117 -18.94369" />
    <path d="M -7.65988 -18.70872 L -7.65988 -19.1462" />
    <path d="M -6.07059 -10.0275 L -6.07059 -14.8997" />
    <path d="M 1.44071 -14.66287 L 1.44071 -15.10221" />
    <path d="M 11.78861 -10.12437 L 11.78861 -10.55723" />
    <path d="M 6.54088 -4.47909 L 6.54088 -9.35129" />
    <path d="M 13.84099 -9.20866 L 13.84099 -9.60374" />
    <path d="M 20.48142 -6.23926 L 20.48142 -6.65096" />
    <path d="M 13.12113 -1.55423 L 13.12113 -6.42642" />
    <path d="M 24.45958 -4.79962 L 24.45958 -4.93832" />
    <path d="M 18.2304 -4.20111 L 18.2304 -4.54055" />
    <path d="M 16.50069 0.42053 L 16.50069 -4.45167" />
    <path d="M 19.89756 1.45698 L 19.89756 -3.41521" />
    <path d="M -11.81486 -12.5795 L -11.81486 -17.4517" />
    <path d="M -2.75012 -15.33594 L -2.75012 -17.01777" />
    <path d="M -3.80891 -9.02581 L -3.80891 -13.89801" />
    <path d="M 3.27116 -14.24576 L 3.27116 -14.34739" />
    <path d="M -1.5266 -8.01163 L -1.5266 -12.88383" />
    <path d="M 5.55347 -13.23158 L 5.55347 -13.33321" />
    <path d="M 15.15451 -0.59912 L 15.15451 -5.47132" />
    <path d="M 22.23457 -5.81907 L 22.23457 -5.9207" />
    <path d="M -20.05152 -15.08708 L -20.05152 -21.16803" />
    <path d="M -12.75141 -20.37363 L -12.75141 -21.42048" />
</svg>