<svg version="1.1" xmlns="http://www.w3.org/2000/svg" viewBox="-29.632413566872007 -14.370905033744274 60.23799423340457 23.855175517865288" fill="none" stroke="black" stroke-width="0.6%" vector-effect="non-scaling-stroke">
    <path d="M 12.60684 6.59778 L -15.28327 2.96364 L -28.47971 -2.89486 A 25 8.69765 277.42392 0 1 -28.32337 -13.3709 L -12.16109 -6.19573 A 25 8.69765 277.42392 0 1 -15.28327 2.96364" />
    <path d="M 15.72902 -2.5616 A 25 8.69765 277.42392 0 1 15.72054 -2.52675" />
    <path d="M 6.20689 -2.87412 L 7.35334 -2.72473" />
    <path d="M 6.20689 -2.87412 A 25 8.69765 277.42392 0 1 6.01502 -2.15088" />
    <path d="M 5.32184 0.19834 L 6.83241 0.39517" />
    <path d="M 5.32184 0.19834 A 25 8.69765 277.42392 0 1 5.09076 0.90417" />
    <path d="M 13.11361 5.47181 A 25 8.69765 277.42392 0 1 12.60684 6.59778" />
    <path d="M 15.72902 -2.5616 L -12.16109 -6.19573" />
    <path d="M -4.41664 -10.25581 L -28.32337 -13.3709" />
    <path d="M 4.96679 -9.56388 L 6.44076 -8.90951 L 6.31429 -8.15209 L -2.98241 -9.36347 L -4.14709 -9.88052 L -4.3664 -8.56702" />
    <path d="M 5.08992 -8.31163 L 5.05537 -8.1047" />
    <path d="M 15.26846 -4.9905 L 16.74243 -4.33613 L 16.61596 -3.57871 L 7.31926 -4.79009 L 6.15458 -5.30714 L 5.93526 -3.99364" />
    <path d="M 15.39159 -3.73825 L 15.23197 -2.78226 L 5.93526 -3.99364" />
    <path d="M 15.23197 -2.78226 L 15.72902 -2.5616" />
    <path d="M 7.32312 -2.54376 L 6.79646 -2.61238 L 6.67079 -1.85976 L 6.01502 -2.15088" />
    <path d="M 6.20689 -2.87412 L 6.79646 -2.61238" />
    <path d="M 7.19746 -1.79113 L 6.67079 -1.85976" />
    <path d="M 6.77602 0.73291 L 6.42209 0.68679 L 6.29642 1.43942 L 5.09076 0.90417" />
    <path d="M 5.32184 0.19834 L 6.42209 0.68679" />
    <path d="M 6.65035 1.48554 L 6.29642 1.43942" />
    <path d="M -4.67569 -8.70433 L -4.3664 -8.56702" />
    <path d="M 0.34456 -7.95317 L -4.3664 -8.56702" />
    <path d="M -2.84733 -7.89263 L -2.55513 -7.76291" />
    <path d="M -2.44931 -7.74912 L -2.55513 -7.76291" />
    <path d="M -2.46568 -7.72321 L -2.00483 -7.51861" />
    <path d="M -1.71694 -7.4811 L -2.00483 -7.51861" />
    <path d="M -1.73098 -7.39704 L -1.44495 -7.27006" />
    <path d="M -1.28171 -7.24878 L -1.44495 -7.27006" />
    <path d="M -1.31189 -7.21098 L -0.53175 -6.86464 L 0.14826 -6.77604" />
    <path d="M 0.11511 -6.57748 L 0.41312 -6.44517" />
    <path d="M 1.43914 -6.31148 L 0.41312 -6.44517" />
    <path d="M 1.17463 -6.10711 L 2.00045 -5.74048 L 2.58407 -5.66444" />
    <path d="M 3.25912 -5.18171 L 4.13813 -4.79147 L 5.70223 -4.58766" />
    <path d="M 5.62597 -4.13095 L 5.93526 -3.99364" />
    <path d="M 4.96679 -9.56388 L -4.32991 -10.77525 L -2.85594 -10.12089 L -2.98241 -9.36347" />
    <path d="M -4.67569 -8.70433 L -4.32991 -10.77525" />
    <path d="M 0.3764 -7.75667 L -2.8009 -8.17068 L -2.51094 -8.04195 L -2.55513 -7.76291" />
    <path d="M -2.84733 -7.89263 L -2.8009 -8.17068" />
    <path d="M 2.86534 -7.34141 L -2.51094 -8.04195" />
    <path d="M -2.46568 -7.72321 Q -2.34 -8.07 -2.13505 -7.96857 Q -2.34 -8.07 -2.07449 -7.95117 Q -1.99 -7.91 -1.9536 -7.82542 L -2.00483 -7.51861" />
    <path d="M 2.84172 -7.20058 L -1.9536 -7.82542" />
    <path d="M 2.8228 -7.08776 L -1.68455 -7.67508 L -1.40265 -7.54993 L -1.44495 -7.27006" />
    <path d="M -1.73098 -7.39704 L -1.68455 -7.67508" />
    <path d="M 2.80828 -7.00123 L -1.40265 -7.54993" />
    <path d="M -1.31189 -7.21098 Q -1.18 -7.55 -0.93622 -7.4331 Q -1.18 -7.55 -0.85505 -7.4098 Q -0.3 -7.16 -0.53175 -6.86464" />
    <path d="M 2.72776 -6.52113 L 0.16153 -6.85552 L 0.45954 -6.72321 L 0.41312 -6.44517" />
    <path d="M 0.11511 -6.57748 L 0.16153 -6.85552" />
    <path d="M 2.71242 -6.42966 L 0.45954 -6.72321" />
    <path d="M 1.17463 -6.10711 Q 0.96 -5.87 1.19558 -6.13127 Q 1.43 -6.4 1.56238 -6.3245 Q 1.43 -6.4 1.63862 -6.30275 Q 1.98 -6.15 2.00045 -5.74048" />
    <path d="M 3.25912 -5.18171 Q 3.47 -5.49 3.65286 -5.39261 Q 3.47 -5.49 3.75533 -5.36305 Q 4.05 -5.23 4.13813 -4.79147" />
    <path d="M 15.26846 -4.9905 L 5.97175 -6.20187 L 7.44572 -5.54751 L 7.31926 -4.79009" />
    <path d="M 5.62597 -4.13095 L 5.97175 -6.20187" />
    <path d="M 6.44076 -8.90951 L -2.85594 -10.12089" />
    <path d="M 16.74243 -4.33613 L 7.44572 -5.54751" />
    <path d="M 27.15551 2.21249 L 17.85881 1.00111 L 18.14071 1.12627 L 18.05272 1.7051 Q 18.36 1.12 18.59102 1.23738 Q 18.36 1.12 18.68187 1.26353 Q 19.05 1.43 19.04037 2.31863 Q 19.19 1.98 19.36755 1.81509 Q 19.55 1.65 19.6458 1.7054 Q 19.55 1.65 19.7354 1.73124 Q 20.31 1.99 20.01678 3.79738 L 19.43648 7.27289 L 19.13846 7.14059 L 19.70996 3.71781 Q 19.8 3.16 19.76346 2.84819 Q 19.72 2.53 19.52274 2.44525 Q 19.36 2.37 19.46878 2.42972 Q 19.36 2.37 19.19806 2.61777 Q 19.04 2.86 18.93832 3.35465 L 18.36362 6.7966 L 18.064 6.66359 L 18.63149 3.26478 Q 18.82 2.13 18.44828 1.96824 Q 18.16 1.84 18.38308 1.9494 Q 18.16 1.84 17.9231 2.53321 L 17.29077 6.32031 L 16.99275 6.18801 L 17.85881 1.00111" />
    <path d="M 27.43742 2.33764 L 18.14071 1.12627" />
    <path d="M 27.15551 2.21249 L 27.43742 2.33764 L 27.4296 2.38906" />
    <path d="M 27.88772 2.44875 Q 27.65 2.33 27.97858 2.47491 Q 28.34 2.64 28.25343 2.82699" />
    <path d="M 28.9425 2.91678 Q 28.84 2.86 29.0321 2.94261 Q 29.61 3.2 29.31349 5.00876 L 28.73318 8.48427 L 19.43648 7.27289" />
    <path d="M 29.31349 5.00876 L 20.01678 3.79738" />
    <path d="M 19.7475 3.46009 L 18.93832 3.35465" />
    <path d="M 19.17818 6.90274 L 18.36362 6.7966" />
    <path d="M 18.695 2.63379 L 17.9231 2.53321" />
    <path d="M 18.10363 6.42623 L 17.29077 6.32031" />
    <path d="M 16.25819 5.8619 L 16.33739 5.34611 Q 16.06 5.88 15.82922 5.75835 Q 16.06 5.88 15.72508 5.72822 Q 15.45 5.6 15.38105 5.058 Q 15.32 4.51 15.47178 3.5664 L 16.03528 0.19157 L 16.33329 0.32387 L 15.7738 3.67474 Q 15.58 4.85 15.89907 4.99704 Q 16.24 5.15 15.98395 5.02167 Q 16.24 5.15 16.47981 4.44129 L 17.10974 0.66857 L 17.40776 0.80087 L 16.5417 5.98777 L 16.25819 5.8619 Z" />
    <path d="M 25.33198 1.40294 L 16.03528 0.19157" />
    <path d="M 25.62999 1.53525 L 16.33329 0.32387" />
    <path d="M 25.33198 1.40294 L 25.62999 1.53525 L 25.5902 1.77359" />
    <path d="M 26.40645 1.87995 L 17.10974 0.66857" />
    <path d="M 26.70446 2.01225 L 17.40776 0.80087" />
    <path d="M 26.40645 1.87995 L 26.70446 2.01225 L 26.68134 2.15071" />
    <path d="M 17.01587 6.04955 L 16.5417 5.98777" />
    <path d="M 15.47244 -1.53611 Q 15.51 -1.75 15.57757 -1.88077 Q 15.65 -2.01 15.70543 -1.97928 Q 15.65 -2.01 15.73367 -1.9711 Q 15.82 -1.93 15.84095 -1.76384 Q 15.86 -1.6 15.82522 -1.37949 Q 15.79 -1.16 15.72009 -1.03998 Q 15.65 -0.92 15.59311 -0.94636 Q 15.65 -0.92 15.56398 -0.95481 Q 15.48 -0.99 15.4567 -1.15691 Q 15.44 -1.32 15.47244 -1.53611 Z" />
    <path d="M 24.97487 -0.76695 Q 24.94 -0.8 25.00213 -0.7679 L 15.70543 -1.97928" />
    <path d="M 25.00213 -0.7679 Q 24.94 -0.8 25.03037 -0.75972 L 15.73367 -1.9711" />
    <path d="M 25.03037 -0.75972 Q 25.12 -0.72 25.13765 -0.55247 L 15.84095 -1.76384" />
    <path d="M 25.13765 -0.55247 Q 25.16 -0.38 25.12193 -0.16811 L 15.82522 -1.37949" />
    <path d="M 25.12193 -0.16811 Q 25.09 0.05 25.01679 0.1714 L 15.72009 -1.03998" />
    <path d="M 25.01679 0.1714 Q 24.95 0.3 24.88982 0.26501 L 15.59311 -0.94636" />
    <path d="M 24.8616 1.19412 L 15.56489 -0.01726 L 14.69884 5.16964 L 14.40083 5.03734 L 15.26688 -0.14956 L 15.56489 -0.01726" />
    <path d="M 15.41654 5.26316 L 14.69884 5.16964" />
    <path d="M 24.8616 1.19412 L 24.83749 1.33851" />
    <path d="M 24.56358 1.06182 L 15.26688 -0.14956" />
    <path d="M 24.56358 1.06182 L 24.8616 1.19412" />
    <path d="M 24.26876 0.90004 L 14.97206 -0.31134 L 14.83438 0.51319 Q 14.77 0.45 14.6934 0.41456 Q 14.4 0.28 14.62832 0.39575 Q 14.4 0.28 14.17144 0.98096 L 13.55672 4.6626 L 13.2587 4.53029 L 14.12476 -0.6566 L 14.41472 -0.52787 L 14.3195 0.0735 Q 14.58 -0.56 14.79061 -0.4545 Q 14.58 -0.56 14.85117 -0.4371 Q 14.94 -0.4 14.97206 -0.31134" />
    <path d="M 15.14937 0.55424 L 14.83438 0.51319" />
    <path d="M 24.26876 0.90004 L 24.2486 1.02077" />
    <path d="M 15.05881 1.09658 L 14.17144 0.98096" />
    <path d="M 14.44409 4.77822 L 13.55672 4.6626" />
    <path d="M 23.42146 0.55478 L 14.12476 -0.6566" />
    <path d="M 23.71142 0.6835 L 14.41472 -0.52787" />
    <path d="M 23.42146 0.55478 L 23.71142 0.6835 L 23.70764 0.70741" />
    <path d="M 24.08731 0.75688 Q 23.88 0.65 24.14787 0.77428 L 14.85117 -0.4371" />
    <path d="M 24.14787 0.77428 Q 24.23 0.81 24.26876 0.90004" />
    <path d="M 11.72887 1.08089 L 11.73928 1.01857 Q 11.87 0.26 12.06888 -0.30776 Q 12.27 -0.87 12.50605 -1.12291 Q 12.74 -1.37 12.87701 -1.29871 Q 12.74 -1.37 12.97126 -1.27168 Q 13.33 -1.11 13.42469 -0.28256 Q 13.52 0.55 13.3188 1.76614 L 13.3084 1.82846 Q 13.18 2.59 12.98402 3.14423 Q 12.79 3.7 12.54885 3.9577 Q 12.31 4.21 12.17293 4.1361 Q 12.31 4.21 12.07641 4.1084 Q 11.72 3.95 11.62459 3.12 Q 11.53 2.29 11.72887 1.08089 Z" />
    <path d="M 22.17371 -0.08733 Q 22.04 -0.16 22.26796 -0.0603 L 12.97126 -1.27168" />
    <path d="M 22.26796 -0.0603 Q 22.62 0.1 22.62827 0.45142" />
    <path d="M 12.02129 1.25705 Q 11.88 2.12 11.92448 2.70218 Q 11.97 3.28 12.19727 3.38454 Q 12.42 3.49 12.25391 3.40081 Q 12.42 3.49 12.64656 3.01502 Q 12.87 2.54 13.02799 1.59069 Q 13.17 0.74 13.12279 0.14725 Q 13.08 -0.44 12.84959 -0.54302 Q 12.63 -0.64 12.79507 -0.55867 Q 12.63 -0.64 12.40634 -0.17854 Q 12.18 0.28 12.02129 1.25705 Z" />
    <path d="M 11.43565 0.90952 L 11.42204 0.99102 Q 11.22 2.18 10.92144 2.81814 Q 10.62 3.46 10.38525 3.34547 Q 10.62 3.46 10.30764 3.32317 Q 9.99 3.18 9.90832 2.50225 L 9.4913 4.99982 L 9.19329 4.86752 L 10.39232 -2.3136 L 10.66456 -2.19274 L 10.583 -1.61105 Q 10.88 -2.2 11.11139 -2.08341 Q 10.88 -2.2 11.20088 -2.05762 Q 11.52 -1.92 11.58018 -1.13231 Q 11.65 -0.35 11.43565 0.90952 Z" />
    <path d="M 16.32085 5.88972 L 9.4913 4.99982" />
    <path d="M 15.49488 -1.64873 L 10.39232 -2.3136" />
    <path d="M 15.47759 -1.5656 L 10.66456 -2.19274" />
    <path d="M 20.83067 -0.2639 Q 20.81 -0.71 20.83099 -0.26229" />
    <path d="M 11.14083 0.75805 Q 11.29 -0.12 11.2465 -0.68315 Q 11.21 -1.25 10.98662 -1.34433 Q 10.72 -1.46 10.92732 -1.36139 Q 10.72 -1.46 10.46141 -0.81027 L 10.04759 1.66812 Q 10.06 2.44 10.3383 2.55926 Q 10.55 2.65 10.39115 2.57444 Q 10.55 2.65 10.76345 2.20476 Q 10.97 1.76 11.14083 0.75805 Z" />
    <path d="M 11.24458 -0.70822 L 10.46141 -0.81027" />
    <path d="M 10.91804 1.78155 L 10.04759 1.66812" />
    <path d="M 16.79585 -2.38663 L 7.49915 -3.59801 L 7.78106 -3.47286 L 7.69306 -2.89403 Q 8 -3.48 8.23136 -3.36175 Q 8 -3.48 8.32222 -3.3356 Q 8.69 -3.17 8.68071 -2.28049 Q 8.83 -2.62 9.00789 -2.78403 Q 9.19 -2.95 9.28614 -2.89372 Q 9.19 -2.95 9.37574 -2.86789 Q 9.95 -2.61 9.65713 -0.80174 L 9.07682 2.67377 L 8.77881 2.54146 L 9.35031 -0.88131 Q 9.44 -1.44 9.4038 -1.75094 Q 9.36 -2.06 9.16309 -2.15388 Q 9 -2.23 9.10913 -2.1694 Q 9 -2.23 8.8384 -1.98135 Q 8.68 -1.74 8.57867 -1.24447 L 8.00397 2.19748 L 7.70434 2.06446 L 8.27184 -1.33435 Q 8.46 -2.47 8.08862 -2.63088 Q 7.8 -2.76 8.02342 -2.64973 Q 7.8 -2.76 7.56344 -2.06592 L 6.93111 1.72119 L 6.6331 1.58889 L 7.49915 -3.59801" />
    <path d="M 17.07776 -2.26148 L 7.78106 -3.47286" />
    <path d="M 16.79585 -2.38663 L 17.07776 -2.26148 L 17.06994 -2.21007" />
    <path d="M 17.52807 -2.15037 Q 17.29 -2.27 17.61892 -2.12422 L 8.32222 -3.3356" />
    <path d="M 17.61892 -2.12422 Q 17.98 -1.96 17.89378 -1.77213" />
    <path d="M 18.58285 -1.68235 Q 18.48 -1.74 18.67244 -1.65651 L 9.37574 -2.86789" />
    <path d="M 10.1296 -0.74018 L 9.65713 -0.80174" />
    <path d="M 18.67244 -1.65651 Q 19.25 -1.4 18.79339 -1.57691" />
    <path d="M 9.5493 2.73533 L 9.07682 2.67377" />
    <path d="M 9.38784 -1.13904 L 8.57867 -1.24447" />
    <path d="M 8.81852 2.30362 L 8.00397 2.19748" />
    <path d="M 8.33535 -1.96534 L 7.56344 -2.06592" />
    <path d="M 7.74397 1.82711 L 6.93111 1.72119" />
    <path d="M 12.50376 -6.6298 L 3.20706 -7.84118 L 3.11821 -7.30907 L 2.78983 -5.55997 L 2.58202 -5.65222 L 2.96703 -7.94774 L 3.20706 -7.84118" />
    <path d="M 12.41492 -6.09769 L 3.11821 -7.30907" />
    <path d="M 12.50376 -6.6298 L 12.41492 -6.09769 L 12.28015 -5.37988" />
    <path d="M 5.7991 -5.16785 L 2.78983 -5.55997" />
    <path d="M 12.26374 -6.73636 L 2.96703 -7.94774" />
    <path d="M 12.26374 -6.73636 L 12.50376 -6.6298" />
    <path d="M 0.36709 -8.24206 Q 0.4 -8.46 0.47222 -8.58673 Q 0.54 -8.72 0.60008 -8.68524 Q 0.54 -8.72 0.62832 -8.67705 Q 0.72 -8.64 0.7356 -8.4698 Q 0.76 -8.3 0.71987 -8.08545 Q 0.68 -7.87 0.61474 -7.74594 Q 0.55 -7.62 0.48776 -7.65232 Q 0.55 -7.62 0.45863 -7.66076 Q 0.37 -7.7 0.35135 -7.86286 Q 0.33 -8.03 0.36709 -8.24206 Z" />
    <path d="M 9.86952 -7.47291 Q 9.84 -7.5 9.89678 -7.47386 L 0.60008 -8.68524" />
    <path d="M 9.89678 -7.47386 Q 9.84 -7.5 9.92502 -7.46567 L 0.62832 -8.67705" />
    <path d="M 9.92502 -7.46567 Q 10.01 -7.43 10.0323 -7.25842 L 0.7356 -8.4698" />
    <path d="M 10.0323 -7.25842 Q 10.05 -7.09 10.03548 -7.02671" />
    <path d="M 2.85977 -7.30823 L -2.07449 -7.95117" />
    <path d="M 2.797 -6.93393 L -0.85505 -7.4098" />
    <path d="M 2.66862 -6.16854 L 1.63862 -6.30275" />
    <path d="M 5.78748 -5.09825 L 3.75533 -5.36305" />
    <path d="M 27.97858 2.47491 L 18.68187 1.26353" />
    <path d="M 29.0321 2.94261 L 19.7354 1.73124" />
    <path d="M 19.72756 2.68677 L 19.19806 2.61777" />
    <path d="M 16.59004 3.7811 L 15.7738 3.67474" />
    <path d="M 16.06554 5.01873 L 15.89907 4.99704" />
    <path d="M 14.04872 -0.20124 L 13.42469 -0.28256" />
    <path d="M 13.71168 1.81733 L 13.3188 1.76614" />
    <path d="M 13.70128 1.87965 L 13.3084 1.82846" />
    <path d="M 13.47935 3.20878 L 12.98402 3.14423" />
    <path d="M 13.33716 4.06042 L 12.54885 3.9577" />
    <path d="M 13.05907 1.39228 L 12.02129 1.25705" />
    <path d="M 12.73291 2.80752 L 11.92448 2.70218" />
    <path d="M 12.3104 3.39928 L 12.19727 3.38454" />
    <path d="M 13.09314 -0.08905 L 12.40634 -0.17854" />
    <path d="M 11.75084 0.95059 L 11.43565 0.90952" />
    <path d="M 11.73702 1.03206 L 11.42204 0.99102" />
    <path d="M 11.60496 2.9072 L 10.92144 2.81814" />
    <path d="M 15.46701 -1.50174 L 11.20088 -2.05762" />
    <path d="M 12.42267 -1.02253 L 11.58018 -1.13231" />
    <path d="M 10.4439 2.57302 L 10.3383 2.55926" />
    <path d="M 9.3679 -1.91236 L 8.8384 -1.98135" />
    <path d="M 2.94158 -7.79595 L 0.71987 -8.08545" />
    <path d="M 2.8836 -7.4503 L 0.61474 -7.74594" />
    <path d="M 2.86134 -7.31753 L -2.13505 -7.96857" />
    <path d="M 2.79909 -6.94639 L -0.93622 -7.4331" />
    <path d="M 5.79013 -5.11412 L 3.65286 -5.39261" />
    <path d="M 2.67056 -6.1801 L 1.56238 -6.3245" />
    <path d="M 27.88772 2.44875 L 18.59102 1.23738" />
    <path d="M 28.9425 2.91678 L 19.6458 1.7054" />
    <path d="M 16.26536 5.81518 L 15.82922 5.75835" />
    <path d="M 24.08731 0.75688 L 14.79061 -0.4545" />
    <path d="M 22.17371 -0.08733 L 12.87701 -1.29871" />
    <path d="M 13.3 4.28296 L 12.17293 4.1361" />
    <path d="M 11.69503 3.51614 L 10.38525 3.34547" />
    <path d="M 15.46912 -1.51559 L 11.11139 -2.08341" />
    <path d="M 17.52807 -2.15037 L 8.23136 -3.36175" />
    <path d="M 18.58285 -1.68235 L 9.28614 -2.89372" />
    <path d="M 2.86552 -7.34249 L 0.48776 -7.65232" />
</svg>