<svg version="1.1" xmlns="http://www.w3.org/2000/svg" viewBox="-0.17480568750000003 -3.031251 77.5712910625 11.531252" fill="none" stroke="black" stroke-width="0.6%" vector-effect="non-scaling-stroke">
    <path d="M 4.84375 4.05273 L 4.84375 3.28613 L 1.7627 3.28613 L 1.7627 0.7666 L 5.3418 0.7666 L 5.3418 0 L 0.8252 0 L 0.8252 7.10938 L 5.29297 7.10938 L 5.29297 6.33789 L 1.7627 6.33789 L 1.7627 4.05273 L 4.84375 4.05273 Z" />
    <path d="M 8.9209 5.3125 L 8.9209 4.47266 Q 8.72 4.51 8.47656 4.50684 Q 7.59 4.51 7.27051 3.75 L 7.27051 0 L 6.36719 0 L 6.36719 5.2832 L 7.24609 5.2832 L 7.26074 4.67285 Q 7.71 5.38 8.52051 5.38086 Q 8.78 5.38 8.9209 5.3125 Z" />
    <path d="M 9.75098 5.2832 L 10.60547 5.2832 L 10.63477 4.61914 Q 11.24 5.38 12.2168 5.38086 Q 13.89 5.38 13.90625 3.49121 L 13.90625 0 L 13.00293 0 L 13.00293 3.49609 Q 13 4.07 12.7417 4.34082 Q 12.49 4.61 11.94336 4.61426 Q 11.5 4.61 11.17188 4.37988 Q 10.84 4.15 10.6543 3.76465 L 10.6543 0 L 9.75098 0 L 9.75098 5.2832 Z" />
    <path d="M 16.25 5.2832 L 16.25 0 L 15.34668 0 L 15.34668 5.2832 L 16.25 5.2832 Z" />
    <path d="M 15.27344 6.68457 Q 15.27 6.9 15.40771 7.05566 Q 15.54 7.21 15.80566 7.20703 Q 16.07 7.21 16.20605 7.05566 Q 16.34 6.9 16.34277 6.68457 Q 16.34 6.46 16.20605 6.31836 Q 16.07 6.17 15.80566 6.17188 Q 15.54 6.17 15.40771 6.31836 Q 15.27 6.46 15.27344 6.68457 Z" />
    <path d="M 19.8877 -0.09766 Q 18.81 -0.1 18.13965 0.60791 Q 17.47 1.31 17.46582 2.49512 L 17.46582 2.66113 Q 17.47 3.45 17.76611 4.06494 Q 18.07 4.68 18.60596 5.03174 Q 19.15 5.38 19.77539 5.38086 Q 20.81 5.38 21.37695 4.70215 Q 21.95 4.02 21.94824 2.75879 L 21.94824 2.38281 L 18.36914 2.38281 Q 18.39 1.6 18.82568 1.12061 Q 19.26 0.64 19.93652 0.63965 Q 20.42 0.64 20.74707 0.83496 Q 21.08 1.03 21.32813 1.35254 L 21.87988 0.92285 Q 21.22 -0.1 19.8877 -0.09766 Z" />
    <path d="M 19.77539 4.63867 Q 19.23 4.64 18.85742 4.24072 Q 18.49 3.84 18.39844 3.125 L 21.04492 3.125 L 21.04492 3.19336 Q 21.01 3.88 20.67383 4.26025 Q 20.34 4.64 19.77539 4.63867 Z" />
    <path d="M 23.47656 7.5 L 23.47656 6.95801 L 23.37402 5.16113 L 22.74414 5.16113 L 22.74902 7.5 L 23.47656 7.5 Z" />
    <path d="M 27.35352 1.40137 Q 27.35 1.77 27.07764 1.97021 Q 26.8 2.17 26.11572 2.31934 Q 25.43 2.47 25.02686 2.6709 Q 24.62 2.88 24.43115 3.15918 Q 24.24 3.44 24.23828 3.83301 Q 24.24 4.48 24.7876 4.93164 Q 25.34 5.38 26.19141 5.38086 Q 27.09 5.38 27.64893 4.91699 Q 28.21 4.45 28.20801 3.73047 L 27.2998 3.73047 Q 27.3 4.1 26.98486 4.37012 Q 26.67 4.64 26.19141 4.63867 Q 25.7 4.64 25.41992 4.42383 Q 25.14 4.21 25.1416 3.8623 Q 25.14 3.54 25.40039 3.36914 Q 25.66 3.2 26.33545 3.05176 Q 27.01 2.9 27.43164 2.69043 Q 27.85 2.48 28.0542 2.18506 Q 28.26 1.89 28.25684 1.46484 Q 28.26 0.76 27.69043 0.32959 Q 27.12 -0.1 26.2207 -0.09766 Q 25.59 -0.1 25.09766 0.12695 Q 24.61 0.35 24.3335 0.75439 Q 24.06 1.16 24.05762 1.62598 L 24.96094 1.62598 Q 24.99 1.17 25.32471 0.90576 Q 25.66 0.64 26.2207 0.63965 Q 26.73 0.64 27.04346 0.84717 Q 27.35 1.05 27.35352 1.40137 Z" />
    <path d="M 36.06934 4.05273 L 36.06934 3.28613 L 32.98828 3.28613 L 32.98828 0.7666 L 36.56738 0.7666 L 36.56738 0 L 32.05078 0 L 32.05078 7.10938 L 36.51855 7.10938 L 36.51855 6.33789 L 32.98828 6.33789 L 32.98828 4.05273 L 36.06934 4.05273 Z" />
    <path d="M 37.58789 5.2832 L 38.44238 5.2832 L 38.4668 4.69727 Q 39.05 5.38 40.03418 5.38086 Q 41.14 5.38 41.54297 4.53125 Q 41.81 4.91 42.229 5.14648 Q 42.65 5.38 43.22754 5.38086 Q 44.97 5.38 44.99512 3.54004 L 44.99512 0 L 44.0918 0 L 44.0918 3.48633 Q 44.09 4.05 43.83301 4.3335 Q 43.57 4.61 42.96387 4.61426 Q 42.46 4.61 42.12891 4.31396 Q 41.8 4.01 41.74316 3.50586 L 41.74316 0 L 40.83496 0 L 40.83496 3.46191 Q 40.83 4.61 39.70703 4.61426 Q 38.82 4.61 38.49121 3.85742 L 38.49121 0 L 37.58789 0 L 37.58789 5.2832 Z" />
    <path d="M 50.82031 2.66602 L 50.82031 2.58301 Q 50.82 1.38 50.26855 0.63965 Q 49.72 -0.1 48.77441 -0.09766 Q 47.81 -0.1 47.26074 0.5127 L 47.26074 -2.03125 L 46.35742 -2.03125 L 46.35742 5.2832 L 47.18262 5.2832 L 47.22656 4.69727 Q 47.78 5.38 48.75977 5.38086 Q 49.71 5.38 50.26611 4.66309 Q 50.82 3.95 50.82031 2.66602 Z" />
    <path d="M 49.91699 2.68555 Q 49.92 3.58 49.53613 4.09668 Q 49.16 4.61 48.49121 4.61426 Q 47.67 4.61 47.26074 3.88672 L 47.26074 1.3623 Q 47.67 0.64 48.50098 0.63965 Q 49.15 0.64 49.53369 1.15479 Q 49.92 1.67 49.91699 2.68555 Z" />
    <path d="M 51.72852 2.62695 L 51.72852 2.69043 Q 51.73 3.47 52.03369 4.08691 Q 52.34 4.71 52.8833 5.04395 Q 53.43 5.38 54.12598 5.38086 Q 55.21 5.38 55.87158 4.63379 Q 56.54 3.89 56.53809 2.64648 L 56.53809 2.58301 Q 56.54 1.81 56.24268 1.19873 Q 55.95 0.59 55.39795 0.24414 Q 54.85 -0.1 54.13574 -0.09766 Q 53.06 -0.1 52.39502 0.64941 Q 51.73 1.4 51.72852 2.62695 Z" />
    <path d="M 52.63672 2.58301 Q 52.64 1.7 53.04443 1.17188 Q 53.45 0.64 54.13574 0.63965 Q 54.82 0.64 55.22949 1.1792 Q 55.63 1.72 55.63477 2.69043 Q 55.63 3.56 55.22217 4.09912 Q 54.81 4.64 54.12598 4.63867 Q 53.46 4.64 53.04688 4.10645 Q 52.64 3.57 52.63672 2.58301 Z" />
    <path d="M 60.22461 5.3125 L 60.22461 4.47266 Q 60.02 4.51 59.78027 4.50684 Q 58.89 4.51 58.57422 3.75 L 58.57422 0 L 57.6709 0 L 57.6709 5.2832 L 58.5498 5.2832 L 58.56445 4.67285 Q 59.01 5.38 59.82422 5.38086 Q 60.09 5.38 60.22461 5.3125 Z" />
    <path d="M 62.03613 5.2832 L 62.03613 0 L 61.13281 0 L 61.13281 5.2832 L 62.03613 5.2832 Z" />
    <path d="M 61.05957 6.68457 Q 61.06 6.9 61.19385 7.05566 Q 61.33 7.21 61.5918 7.20703 Q 61.86 7.21 61.99219 7.05566 Q 62.13 6.9 62.12891 6.68457 Q 62.13 6.46 61.99219 6.31836 Q 61.86 6.17 61.5918 6.17188 Q 61.33 6.17 61.19385 6.31836 Q 61.06 6.46 61.05957 6.68457 Z" />
    <path d="M 66.7627 0 L 66.74316 0.52246 Q 66.22 -0.1 65.19531 -0.09766 Q 64.35 -0.1 63.90869 0.39307 Q 63.47 0.88 63.46191 1.8457 L 63.46191 5.2832 L 64.36523 5.2832 L 64.36523 1.87012 Q 64.37 0.67 65.3418 0.66895 Q 66.38 0.67 66.71875 1.44043 L 66.71875 5.2832 L 67.62207 5.2832 L 67.62207 0 L 66.7627 0 Z" />
    <path d="M 68.98926 5.2832 L 69.84375 5.2832 L 69.86816 4.69727 Q 70.45 5.38 71.43555 5.38086 Q 72.54 5.38 72.94434 4.53125 Q 73.21 4.91 73.63037 5.14648 Q 74.05 5.38 74.62891 5.38086 Q 76.37 5.38 76.39648 3.54004 L 76.39648 0 L 75.49316 0 L 75.49316 3.48633 Q 75.49 4.05 75.23438 4.3335 Q 74.98 4.61 74.36523 4.61426 Q 73.86 4.61 73.53027 4.31396 Q 73.2 4.01 73.14453 3.50586 L 73.14453 0 L 72.23633 0 L 72.23633 3.46191 Q 72.24 4.61 71.1084 4.61426 Q 70.22 4.61 69.89258 3.85742 L 69.89258 0 L 68.98926 0 L 68.98926 5.2832 Z" />
</svg>