<svg version="1.1" xmlns="http://www.w3.org/2000/svg" viewBox="-32.628394328079466 -57.41581334913039 72.39027532245512 122.27611012562687" fill="none" stroke="black" stroke-width="0.6%" vector-effect="non-scaling-stroke">
    <path d="M 38.76188 11.22818 L 11.87567 15.62672 L 2.39414 62.21062 A 50 20.93539 260.7088 0 1 -1.37397 63.74466 L 25.51224 59.34612" />
    <path d="M 29.28035 57.81208 L 2.39414 62.21062" />
    <path d="M 38.76188 11.22818 L 29.28035 57.81208 A 50 20.93539 260.7088 0 1 25.51224 59.34612" />
    <path d="M 23.93402 -12.06009 A 50 20.93539 80.7088 0 0 0.40494 -37.87575" />
    <path d="M -25.59235 35.97961 A 50 20.93539 260.7088 0 1 -17.51919 -34.94339 A 50 20.93539 260.7088 0 1 11.87567 15.62672" />
    <path d="M 32.89609 -13.52628 A 50 20.93539 260.7088 0 1 38.76188 11.22818" />
    <path d="M 23.93402 -12.06009 L 32.89609 -13.52628 A 50 20.93539 80.7088 0 0 4.72921 -56.30018" />
    <path d="M -1.37397 63.74466 A 50 20.93539 260.7088 0 1 -7.5231 62.69752 L -25.59235 35.97961" />
    <path d="M -17.10527 -35.01111 A 50 20.93539 260.7088 0 1 -4.23286 -54.834 L 4.72921 -56.30018" />
    <path d="M -4.23286 -54.834 A 50 20.93539 260.7088 0 1 23.93402 -12.06009" />
    <path d="M -17.51919 -34.94339 L 0.40494 -37.87575" />
</svg>